<?xml version="1.0" encoding="utf-8"?>
<!-- Generator: Adobe Illustrator 27.5.0, SVG Export Plug-In . SVG Version: 6.00 Build 0)  -->
<svg version="1.1" id="Layer_1" xmlns="http://www.w3.org/2000/svg" xmlns:xlink="http://www.w3.org/1999/xlink" x="0px" y="0px"
	 viewBox="0 0 1572 1118" style="enable-background:new 0 0 1572 1118;" xml:space="preserve">
<style type="text/css">
	.st0{fill:none;stroke:#E94592;stroke-width:4;stroke-miterlimit:10;}
	.st1{opacity:0.1;}
	.st2{fill:none;stroke:#FAB637;stroke-width:4;stroke-miterlimit:10;}
</style>
<g>
	<path class="st0" d="M741.6,1092c50.6-7.3,108.8-12.5,173.4-12.4c49,0.1,94.1,3.1,134.7,7.7"/>
	<path class="st0" d="M742.8,1075c50-7.5,107.7-12.7,171.6-12.4c48.5,0.3,93.1,3.7,132.8,8.6"/>
	<path class="st0" d="M744,1058c49.3-7.7,106.6-12.9,169.7-12.5c48.1,0.4,92,4.3,130.9,9.5"/>
	<path class="st0" d="M745.3,1040.9c48.7-8,105.5-13.2,167.9-12.5c47.6,0.6,90.9,4.9,128.9,10.4"/>
	<path class="st0" d="M746.5,1023.9c48.1-8.2,104.3-13.6,166-12.6c47.2,0.7,89.9,5.5,127,11.3"/>
	<path class="st0" d="M747.7,1006.9c47.5-8.4,103.2-13.8,164.2-12.6c46.7,0.9,88.8,6.1,125.1,12.2"/>
	<path class="st0" d="M748.9,989.8c46.9-8.6,102.1-14.1,162.3-12.7c46.3,1.1,87.7,6.7,123.1,13.1"/>
	<path class="st0" d="M750.1,972.8c46.3-8.8,100.9-14.4,160.4-12.7c45.8,1.2,86.7,7.3,121.2,14"/>
	<path class="st0" d="M751.3,955.8c45.7-9,99.8-14.6,158.6-12.8c45.4,1.4,85.6,7.9,119.3,14.8"/>
	<path class="st0" d="M752.6,938.7c45-9.2,98.7-14.9,156.7-12.8c44.9,1.6,84.6,8.5,117.3,15.7"/>
	<path class="st0" d="M753.8,921.7c44.4-9.5,97.6-15.2,154.9-12.9c44.5,1.8,83.5,9.1,115.4,16.6"/>
	<path class="st0" d="M755,904.7c43.8-9.7,96.4-15.4,153-12.9c44,1.9,82.4,9.7,113.5,17.5"/>
	<path class="st0" d="M756.2,887.6c43.2-9.9,95.3-15.7,151.2-13c43.6,2.1,81.4,10.4,111.6,18.4"/>
	<path class="st0" d="M757.4,870.6c42.6-10.1,94.2-16,149.3-13c43.1,2.3,80.3,11,109.6,19.3"/>
	<path class="st0" d="M758.7,853.6c42-10.3,93-16.2,147.5-13.1c42.7,2.5,79.2,11.6,107.7,20.2"/>
	<path class="st0" d="M759.9,836.6c41.4-10.5,91.9-16.5,145.6-13.1c42.2,2.6,78.2,12.2,105.8,21.1"/>
	<path class="st0" d="M761.1,819.5c40.7-10.7,90.8-16.8,143.8-13.2c41.8,2.8,77.1,12.8,103.8,22"/>
	<path class="st0" d="M762.3,802.5c40.1-11,89.7-17,141.9-13.3c41.3,3,76.1,13.4,101.9,22.8"/>
	<path class="st0" d="M763.5,785.5c39.5-11.2,88.5-17.3,140.1-13.3c40.9,3.2,75,14,100,23.7"/>
	<path class="st0" d="M764.7,768.4c38.9-11.4,87.4-17.5,138.2-13.4c40.4,3.3,73.9,14.6,98.1,24.6"/>
	<path class="st0" d="M766,751.4c38.3-11.6,86.3-17.8,136.4-13.4c40,3.5,72.9,15.2,96.1,25.5"/>
	<path class="st0" d="M767.2,734.4c37.7-11.8,85.2-18.1,134.5-13.5c39.5,3.7,71.8,15.8,94.2,26.4"/>
	<path class="st0" d="M768.4,717.3c37-12,84-18.3,132.7-13.5c39.1,3.9,70.8,16.4,92.3,27.3"/>
	<path class="st0" d="M769.6,700.3c36.4-12.2,82.9-18.6,130.8-13.6c38.6,4,69.7,17,90.3,28.2"/>
	<path class="st0" d="M770.8,683.3c35.8-12.5,81.8-18.8,128.9-13.6c38.2,4.2,68.6,17.6,88.4,29.1"/>
	<path class="st0" d="M772.1,666.2c35.2-12.7,80.7-19.1,127.1-13.7c37.7,4.4,67.6,18.2,86.5,30"/>
	<path class="st0" d="M773.3,649.2c34.6-12.9,79.5-19.3,125.2-13.7c37.3,4.6,66.5,18.8,84.6,30.8"/>
	<path class="st0" d="M774.5,632.2c34-13.1,78.4-19.6,123.4-13.8c36.8,4.8,65.4,19.4,82.6,31.7"/>
	<path class="st0" d="M775.7,615.1c33.4-13.3,77.3-19.8,121.5-13.8c36.4,5,64.4,20,80.7,32.6"/>
	<path class="st0" d="M776.9,598.1c32.7-13.5,76.2-20.1,119.7-13.9c35.9,5.1,63.3,20.6,78.8,33.5"/>
	<path class="st0" d="M778.1,581.1c32.1-13.7,75-20.3,117.8-13.9c35.5,5.3,62.3,21.2,76.8,34.4"/>
	<path class="st0" d="M779.4,564c31.5-14,73.9-20.6,116-14c35,5.5,61.2,21.8,74.9,35.3"/>
	<path class="st0" d="M780.6,547c30.9-14.2,72.8-20.8,114.1-14c34.6,5.7,60.1,22.4,73,36.2"/>
	<path class="st0" d="M781.8,530c30.3-14.4,71.7-21.1,112.3-14.1c34.1,5.9,59.1,23,71,37.1"/>
	<path class="st0" d="M783,512.9c29.7-14.6,70.5-21.3,110.4-14.1c33.7,6.1,58,23.6,69.1,37.9"/>
	<path class="st0" d="M784.2,495.9c29.1-14.8,69.4-21.5,108.6-14.2c33.3,6.3,56.9,24.2,67.2,38.8"/>
	<path class="st0" d="M785.5,478.9c28.4-15,68.3-21.8,106.7-14.2c32.8,6.5,55.9,24.8,65.3,39.7"/>
	<path class="st0" d="M786.7,461.8c27.8-15.2,67.2-22,104.9-14.3c32.4,6.7,54.8,25.4,63.3,40.6"/>
	<path class="st0" d="M787.9,444.8c27.2-15.5,66-22.2,103-14.3c31.9,6.8,53.8,26,61.4,41.5"/>
	<path class="st0" d="M789.1,427.8c26.6-15.7,64.9-22.5,101.2-14.4c31.5,7,52.7,26.6,59.5,42.4"/>
	<path class="st0" d="M790.3,410.7c26-15.9,63.8-22.7,99.3-14.4c31,7.2,51.6,27.3,57.5,43.3"/>
	<path class="st0" d="M791.6,393.7c25.4-16.1,62.7-22.9,97.4-14.5c30.6,7.4,50.6,27.9,55.6,44.2"/>
	<path class="st0" d="M792.8,376.7c24.7-16.3,61.5-23.2,95.6-14.5c30.1,7.6,49.5,28.5,53.7,45.1"/>
	<path class="st0" d="M794,359.6c24.1-16.5,60.4-23.4,93.7-14.6c29.7,7.8,48.5,29.1,51.8,45.9"/>
	<path class="st0" d="M795.2,342.6c23.5-16.7,59.3-23.6,91.9-14.6c29.2,8.1,47.4,29.7,49.8,46.8"/>
	<path class="st0" d="M796.4,325.6c22.9-16.9,58.2-23.8,90-14.7c28.8,8.3,46.3,30.3,47.9,47.7"/>
	<path class="st0" d="M797.6,308.6c22.3-17.2,57-24,88.2-14.7c28.3,8.5,45.3,30.9,46,48.6"/>
	<path class="st0" d="M798.9,291.5c21.7-17.4,55.9-24.3,86.3-14.8c27.9,8.7,44.2,31.5,44,49.5"/>
	<path class="st0" d="M800.1,274.5c21.1-17.6,54.8-24.5,84.5-14.8c27.4,8.9,43.1,32.1,42.1,50.4"/>
	<path class="st0" d="M801.3,257.5c20.4-17.8,53.6-24.7,82.6-14.9c27,9.1,42.1,32.7,40.2,51.3"/>
	<path class="st0" d="M802.5,240.4c19.8-18,52.5-24.9,80.8-14.9c26.5,9.3,41,33.3,38.3,52.2"/>
	<path class="st0" d="M803.7,223.4c19.2-18.2,51.4-25.1,78.9-15c26,9.6,40,33.9,36.3,53.1"/>
	<path class="st0" d="M805,206.4c18.6-18.4,50.2-25.3,77.1-15c25.6,9.8,38.9,34.5,34.4,53.9"/>
	<path class="st0" d="M806.2,189.3c18-18.7,49.1-25.5,75.2-15.1c25.1,10,37.8,35.1,32.5,54.8"/>
	<path class="st0" d="M807.4,172.3c17.4-18.9,47.9-25.7,73.4-15.1c24.7,10.3,36.8,35.7,30.5,55.7"/>
	<path class="st0" d="M808.6,155.3c16.8-19.1,46.8-25.9,71.5-15.2c24.2,10.5,35.7,36.3,28.6,56.6"/>
	<path class="st0" d="M809.8,138.2c16.1-19.3,45.7-26.1,69.7-15.2c23.7,10.7,34.6,36.9,26.7,57.5"/>
	<path class="st0" d="M811,121.2c15.5-19.5,44.5-26.3,67.8-15.3c23.3,11,33.6,37.5,24.7,58.4"/>
	<path class="st0" d="M812.3,104.2c14.9-19.7,43.4-26.4,65.9-15.3c22.8,11.2,32.5,38.1,22.8,59.3"/>
	<path class="st0" d="M813.5,87.1c14.3-19.9,42.2-26.6,64.1-15.4c22.3,11.5,31.5,38.7,20.9,60.2"/>
	<path class="st0" d="M814.7,70.1c13.7-20.2,41-26.8,62.2-15.4c21.8,11.7,30.4,39.3,19,61"/>
	<path class="st0" d="M815.9,53.1c13.1-20.4,39.9-27,60.4-15.5c21.3,12,29.3,39.9,17,61.9"/>
</g>
<g id="drawing" class="st1">
</g>
<g>
	<line class="st2" x1="94.4" y1="234.2" x2="292.6" y2="132"/>
	<path class="st2" d="M100,246.3c0-0.6,20.6-11.9,21.1-12.3c1.3-0.9,80.1-38.1,83.7-37.9c0.7,0,63.7-30.6,64.9-32.7
		c0.8-1.3,38.4-22.6,38.2-23.2"/>
	<path class="st2" d="M105.5,258.3c0.1-1.2,20.4-13.1,21.5-13.8c2.7-1.9,82.2-36,89.5-35.6c1.3,0.1,66.6-29.9,69-34
		c1.6-2.7,38.1-25.3,37.7-26.4"/>
	<path class="st2" d="M111.1,270.3c0.1-1.8,20.3-14.2,21.9-15.4c4-2.8,84.3-33.8,95.3-33.4c2,0.1,69.6-29.3,73.2-35.4
		c2.4-4,37.8-27.9,37.2-29.7"/>
	<path class="st2" d="M116.7,282.4c0.1-2.4,20.1-15.4,22.3-17c5.4-3.8,86.4-31.7,101-31.1c2.6,0.1,72.5-28.6,77.3-36.8
		c3.2-5.4,37.4-30.5,36.6-32.9"/>
	<path class="st2" d="M122.3,294.4c0.2-3,19.9-16.6,22.7-18.6c6.7-4.7,88.6-29.6,106.8-28.8c3.3,0.1,75.5-27.9,81.5-38.1
		c4-6.7,37.1-33.2,36.1-36.1"/>
	<path class="st2" d="M127.9,306.4c0.2-3.6,19.8-17.8,23.1-20.1c8-5.6,90.7-27.4,112.5-26.5c3.9,0.2,78.4-27.2,85.7-39.5
		c4.8-8,36.8-35.8,35.6-39.3"/>
	<path class="st2" d="M133.5,318.5c0.2-4.1,19.6-19,23.5-21.7c9.4-6.6,92.8-25.3,118.3-24.2c4.6,0.2,81.3-26.6,89.8-40.9
		c5.5-9.4,36.5-38.4,35-42.6"/>
	<path class="st2" d="M139,330.5c0.3-4.7,19.4-20.2,23.9-23.3c10.7-7.5,94.9-23.2,124-21.9c5.3,0.2,84.3-25.9,94-42.2
		c6.3-10.7,36.1-41.1,34.5-45.8"/>
	<path class="st2" d="M144.6,342.5c0.3-5.3,19.3-21.4,24.3-24.9c12.1-8.4,97-21,129.8-19.7c5.9,0.2,87.2-25.2,98.1-43.6
		c7.1-12,35.8-43.7,34-49"/>
	<path class="st2" d="M150.2,354.5c0.3-5.9,19.1-22.5,24.7-26.5c13.4-9.4,99.1-18.9,135.5-17.4c6.6,0.3,90.2-24.5,102.3-45
		c7.9-13.4,35.5-46.3,33.4-52.2"/>
	<path class="st2" d="M155.8,366.6c0.4-6.5,19-23.7,25.1-28c14.7-10.3,101.2-16.8,141.3-15.1c7.2,0.3,93.1-23.9,106.4-46.3
		c8.7-14.7,35.2-49,32.9-55.5"/>
	<path class="st2" d="M161.4,378.6c0.4-7.1,18.8-24.9,25.5-29.6c16.1-11.3,103.4-14.6,147-12.8c7.9,0.3,96.1-23.2,110.6-47.7
		c9.5-16.1,34.8-51.6,32.3-58.7"/>
	<path class="st2" d="M167,390.6c0.4-7.7,18.6-26.1,25.9-31.2c17.4-12.2,105.5-12.5,152.8-10.5c8.6,0.4,99-22.5,114.8-49.1
		c10.3-17.4,34.5-54.2,31.8-61.9"/>
	<path class="st2" d="M172.6,402.7c0.5-8.3,18.5-27.3,26.3-32.8c18.8-13.1,107.6-10.4,158.5-8.2c9.2,0.4,102-21.8,118.9-50.4
		c11.1-18.7,34.2-56.9,31.3-65.1"/>
	<path class="st2" d="M178.1,414.7c0.5-8.9,18.3-28.5,26.7-34.3c20.1-14.1,109.7-8.2,164.3-6c9.9,0.4,104.9-21.1,123.1-51.8
		c11.9-20.1,33.9-59.5,30.7-68.4"/>
	<path class="st2" d="M183.7,426.7c0.5-9.5,18.1-29.7,27.1-35.9c21.4-15,111.8-6.1,170-3.7c10.5,0.4,107.9-20.5,127.2-53.1
		c12.7-21.4,33.5-62.1,30.2-71.6"/>
	<path class="st2" d="M189.3,438.8c0.6-10.1,18-30.8,27.5-37.5c22.8-16,113.9-4,175.8-1.4c11.2,0.5,110.8-19.8,131.4-54.5
		c13.5-22.7,33.2-64.8,29.7-74.8"/>
	<path class="st2" d="M194.9,450.8c0.6-10.7,17.8-32,27.9-39.1c24.1-16.9,116-1.8,181.5,0.9c11.8,0.5,113.8-19.1,135.5-55.9
		c14.3-24.1,32.9-67.4,29.1-78.1"/>
	<path class="st2" d="M200.5,462.8c0.6-11.3,17.7-33.2,28.3-40.6c25.5-17.8,118.1,0.3,187.3,3.2c12.5,0.5,116.7-18.4,139.7-57.2
		c15.1-25.4,32.6-70.1,28.6-81.3"/>
	<path class="st2" d="M206.1,474.9c0.7-11.9,17.5-34.4,28.7-42.2c26.8-18.8,120.3,2.4,193,5.5c13.2,0.5,119.7-17.8,143.9-58.6
		c15.8-26.8,32.2-72.7,28.1-84.5"/>
	<path class="st2" d="M211.6,486.9c0.7-12.4,17.3-35.6,29.1-43.8c28.1-19.7,122.4,4.6,198.8,7.7c13.8,0.6,122.6-17.1,148-60
		c16.6-28.1,31.9-75.3,27.5-87.7"/>
	<path class="st2" d="M217.2,498.9c0.7-13,17.2-36.8,29.5-45.4c29.5-20.7,124.5,6.7,204.6,10c14.5,0.6,125.6-16.4,152.2-61.3
		c17.4-29.4,31.6-78,27-91"/>
	<path class="st2" d="M222.8,511c0.8-13.6,17-38,29.8-46.9c30.8-21.6,126.6,8.8,210.3,12.3c15.1,0.6,128.5-15.7,156.3-62.7
		c18.2-30.8,31.3-80.6,26.5-94.2"/>
	<path class="st2" d="M228.4,523c0.8-14.2,16.9-39.1,30.2-48.5c32.2-22.5,128.7,11,216.1,14.6c15.8,0.7,131.5-15.1,160.5-64.1
		c19-32.1,30.9-83.2,25.9-97.4"/>
	<path class="st2" d="M234,535c0.9-14.8,16.7-40.3,30.6-50.1c33.5-23.5,130.8,13.1,221.8,16.9c16.4,0.7,134.4-14.4,164.6-65.4
		c19.8-33.5,30.6-85.9,25.4-100.6"/>
	<path class="st2" d="M239.6,547.1c0.9-15.4,16.5-41.5,31-51.7c34.8-24.4,132.9,15.2,227.6,19.2c17.1,0.7,137.4-13.7,168.8-66.8
		c20.6-34.8,30.3-88.5,24.9-103.9"/>
	<path class="st2" d="M245.1,559.1c0.9-16,16.4-42.7,31.4-53.2c36.2-25.3,135,17.4,233.3,21.4c17.8,0.7,140.3-13,173-68.2
		c21.4-36.1,30-91.1,24.3-107.1"/>
	<path class="st2" d="M250.7,571.1c1-16.6,16.2-43.9,31.8-54.8c37.5-26.3,137.2,19.5,239.1,23.7c18.4,0.8,143.3-12.3,177.1-69.5
		c22.2-37.5,29.6-93.8,23.8-110.3"/>
	<path class="st2" d="M256.3,583.1c1-17.2,16-45.1,32.2-56.4c38.9-27.2,139.3,21.6,244.8,26c19.1,0.8,146.2-11.7,181.3-70.9
		c23-38.8,29.3-96.4,23.3-113.5"/>
	<path class="st2" d="M261.9,595.2c1-17.8,15.9-46.3,32.6-58c40.2-28.2,141.4,23.8,250.6,28.3c19.7,0.8,149.2-11,185.4-72.3
		c23.8-40.1,29-99,22.7-116.8"/>
	<path class="st2" d="M267.5,607.2c1.1-18.4,15.7-47.4,33-59.6c41.5-29.1,143.5,25.9,256.3,30.6c20.4,0.8,152.1-10.3,189.6-73.6
		c24.6-41.5,28.6-101.7,22.2-120"/>
	<path class="st2" d="M273.1,619.2c1.1-19,15.6-48.6,33.4-61.1c42.9-30,145.6,28,262.1,32.9c21.1,0.9,155.1-9.6,193.8-75
		c25.4-42.8,28.3-104.3,21.7-123.2"/>
	<path class="st2" d="M278.7,631.3c1.1-19.6,15.4-49.8,33.8-62.7c44.2-31,147.7,30.2,267.8,35.2c21.7,0.9,158-9,197.9-76.4
		c26.1-44.2,28-107,21.1-126.4"/>
	<path class="st2" d="M284.2,643.3c1.2-20.2,15.2-51,34.2-64.3c45.6-31.9,149.8,32.3,273.6,37.4c22.4,0.9,161-8.3,202.1-77.7
		c26.9-45.5,27.7-109.6,20.6-129.7"/>
	<path class="st2" d="M289.8,655.3c1.2-20.7,15.1-52.2,34.6-65.9c46.9-32.9,152,34.4,279.3,39.7c23,1,163.9-7.6,206.2-79.1
		c27.7-46.8,27.3-112.2,20.1-132.9"/>
	<path class="st2" d="M295.4,667.4c1.2-21.3,14.9-53.4,35-67.4c48.2-33.8,154.1,36.6,285.1,42c23.7,1,166.8-6.9,210.4-80.5
		c28.5-48.2,27-114.9,19.5-136.1"/>
	<path class="st2" d="M301,679.4c1.3-21.9,14.8-54.6,35.4-69c49.6-34.7,156.2,38.7,290.8,44.3c24.3,1,169.8-6.3,214.5-81.8
		c29.3-49.5,26.7-117.5,19-139.3"/>
	<path class="st2" d="M306.6,691.4c1.3-22.5,14.6-55.7,35.8-70.6c50.9-35.7,158.3,40.8,296.6,46.6c25,1,172.7-5.6,218.7-83.2
		c30.1-50.8,26.4-120.1,18.5-142.6"/>
	<path class="st2" d="M312.2,703.5c1.3-23.1,14.4-56.9,36.2-72.2c52.3-36.6,160.4,43,302.3,48.9c25.7,1.1,175.7-4.9,222.9-84.5
		c30.9-52.2,26-122.8,17.9-145.8"/>
	<path class="st2" d="M317.7,715.5c1.4-23.7,14.3-58.1,36.6-73.7c53.6-37.6,162.5,45.1,308.1,51.1c26.3,1.1,178.6-4.2,227-85.9
		c31.7-53.5,25.7-125.4,17.4-149"/>
	<path class="st2" d="M323.3,727.5c1.4-24.3,14.1-59.3,37-75.3c54.9-38.5,164.6,47.2,313.9,53.4c27,1.1,181.6-3.5,231.2-87.3
		c32.5-54.9,25.4-128,16.9-152.3"/>
	<path class="st2" d="M328.9,739.6c1.4-24.9,13.9-60.5,37.4-76.9c56.3-39.4,166.7,49.4,319.6,55.7c27.6,1.1,184.5-2.9,235.3-88.6
		c33.3-56.2,25.1-130.7,16.3-155.5"/>
	<path class="st2" d="M334.5,751.6c1.5-25.5,13.8-61.7,37.8-78.5c57.6-40.4,168.9,51.5,325.4,58c28.3,1.2,187.5-2.2,239.5-90
		c34.1-57.5,24.7-133.3,15.8-158.7"/>
	<path class="st2" d="M340.1,763.6c1.5-26.1,13.6-62.9,38.2-80c59-41.3,171,53.6,331.1,60.3c28.9,1.2,190.4-1.5,243.6-91.4
		c34.9-58.9,24.4-135.9,15.3-161.9"/>
	<path class="st2" d="M345.7,775.7c1.5-26.7,13.5-64,38.6-81.6c60.3-42.2,173.1,55.7,336.9,62.6c29.6,1.2,193.4-0.8,247.8-92.7
		c35.7-60.2,24.1-138.6,14.7-165.2"/>
	<path class="st2" d="M351.3,787.7c1.6-27.3,13.3-65.2,39-83.2c61.6-43.2,175.2,57.9,342.6,64.8c30.3,1.3,196.3-0.2,252-94.1
		c36.4-61.6,23.8-141.2,14.2-168.4"/>
	<path class="st2" d="M356.8,799.7c1.6-27.9,13.1-66.4,39.4-84.8c63-44.1,177.3,60,348.4,67.1c30.9,1.3,199.3,0.5,256.1-95.5
		c37.2-62.9,23.4-143.8,13.7-171.6"/>
	<path class="st2" d="M362.4,811.8c1.6-28.4,13-67.6,39.8-86.3c64.3-45.1,179.4,62.1,354.1,69.4c31.6,1.3,202.2,1.2,260.3-96.8
		c38-64.2,23.1-146.5,13.1-174.8"/>
	<path class="st2" d="M368,823.8c1.7-29,12.8-68.8,40.1-87.9c65.7-46,181.5,64.3,359.9,71.7c32.2,1.3,205.2,1.9,264.4-98.2
		c38.8-65.6,22.8-149.1,12.6-178.1"/>
	<path class="st2" d="M373.6,835.8c1.7-29.6,12.7-70,40.5-89.5c67-46.9,183.7,66.4,365.6,74c32.9,1.4,208.1,2.5,268.6-99.6
		c39.6-66.9,22.5-151.8,12.1-181.3"/>
	<path class="st2" d="M379.2,847.8c1.7-30.2,12.5-71.1,40.9-91.1c68.3-47.9,185.8,68.5,371.4,76.3c33.5,1.4,211.1,3.2,272.7-100.9
		c40.4-68.2,22.1-154.4,11.5-184.5"/>
	<path class="st2" d="M384.8,859.9c1.8-30.8,12.3-72.3,41.3-92.7c69.7-48.8,187.9,70.7,377.1,78.5c34.2,1.4,214,3.9,276.9-102.3
		c41.2-69.6,21.8-157,11-187.7"/>
	<path class="st2" d="M390.3,871.9c1.8-31.4,12.2-73.5,41.7-94.2c71-49.8,190,72.8,382.9,80.8c34.9,1.4,217,4.6,281.1-103.7
		c42-70.9,21.5-159.7,10.5-191"/>
	<path class="st2" d="M395.9,883.9c1.8-32,12-74.7,42.1-95.8c72.4-50.7,192.1,74.9,388.6,83.1c35.5,1.5,219.9,5.3,285.2-105
		c42.8-72.3,21.1-162.3,9.9-194.2"/>
	<path class="st2" d="M401.5,896c1.9-32.6,11.8-75.9,42.5-97.4c73.7-51.6,194.2,77.1,394.4,85.4c36.2,1.5,222.9,5.9,289.4-106.4
		c43.6-73.6,20.8-164.9,9.4-197.4"/>
	<path class="st2" d="M407.1,908c1.9-33.2,11.7-77.1,42.9-99c75-52.6,196.3,79.2,400.1,87.7c36.8,1.5,225.8,6.6,293.5-107.8
		c44.4-74.9,20.5-167.6,8.9-200.6"/>
	<path class="st2" d="M412.7,920c1.9-33.8,11.5-78.3,43.3-100.5c76.4-53.5,198.4,81.3,405.9,90c37.5,1.6,228.8,7.3,297.7-109.1
		c45.2-76.3,20.2-170.2,8.3-203.9"/>
	<path class="st2" d="M418.3,932.1c2-34.4,11.4-79.4,43.7-102.1c77.7-54.4,200.6,83.5,411.6,92.2c38.2,1.6,231.7,8,301.8-110.5
		c46-77.6,19.8-172.8,7.8-207.1"/>
	<path class="st2" d="M423.8,944.1c2-35,11.2-80.6,44.1-103.7C547,785,670.6,926,885.4,934.9c38.8,1.6,234.7,8.6,306-111.9
		c46.7-78.9,19.5-175.5,7.3-210.3"/>
	<path class="st2" d="M429.4,956.1c2-35.6,11-81.8,44.5-105.3c80.4-56.3,204.8,87.7,423.1,96.8c39.5,1.6,237.6,9.3,310.2-113.2
		c47.5-80.3,19.2-178.1,6.7-213.5"/>
	<path class="st2" d="M435,968.2c2.1-36.2,10.9-83,44.9-106.8c81.7-57.3,206.9,89.9,428.9,99.1c40.1,1.7,240.6,10,314.3-114.6
		c48.3-81.6,18.9-180.7,6.2-216.8"/>
</g>
</svg>
