<?xml version="1.0" encoding="utf-8"?>
<!-- Generator: Adobe Illustrator 27.5.0, SVG Export Plug-In . SVG Version: 6.00 Build 0)  -->
<svg version="1.1" id="Layer_1" xmlns="http://www.w3.org/2000/svg" xmlns:xlink="http://www.w3.org/1999/xlink" x="0px" y="0px"
	 viewBox="0 0 595.3 841.9" style="enable-background:new 0 0 595.3 841.9;" xml:space="preserve">
<style type="text/css">
	.st0{fill:#7AA8DA;}
	.st1{fill:#EE79AD;}
</style>
<polygon class="st0" points="381.5,202 404.9,274.1 480.7,274.1 419.4,318.7 442.8,390.8 381.5,346.2 320.1,390.8 343.5,318.7 
	282.1,274.1 358,274.1 "/>
<path class="st1" d="M134.4,156.9V558h347.7V156.9H134.4z M301.1,175.9l12.4,3l9.5-8.5l1,12.7l11,6.4l-11.8,4.8l-2.7,12.4l-8.2-9.7
	l-12.7,1.3l6.7-10.8L301.1,175.9z M190.4,200.9l6.9,1.9l5.4-4.6l0.3,7.1l6.1,3.7l-6.7,2.5l-1.7,6.9l-4.5-5.5l-7.1,0.5l3.9-6
	L190.4,200.9z M175.1,260.3l2.7-4.9l2.3,5.1l5.5,1l-4.1,3.7l0.7,5.5l-4.8-2.8l-5,2.4l1.2-5.4l-3.8-4L175.1,260.3z M153.4,372.5
	l9-0.5l4.7-7.7l3.3,8.4l8.8,2.1l-7,5.7l0.7,9l-7.6-4.9l-8.3,3.5l2.3-8.7L153.4,372.5z M199,499.8l-0.6,18.7L184,506.7l-17.9,5.2
	l6.8-17.4L162.3,479l18.6,1.1l11.4-14.7l4.7,18l17.6,6.3L199,499.8z M270.8,510l-5,12l-6.5-11.3l-13-1l8.7-9.7l-3-12.7l11.9,5.3
	l11.1-6.8l-1.4,12.9l9.9,8.5L270.8,510z M342.7,523.6l-8.4,15.2l-6.9-15.9l-17-3.3l13-11.5l-2.1-17.2l14.9,8.8l15.7-7.3l-3.8,16.9
	L360,522L342.7,523.6z M305.4,468.5c-56.5,0-102.3-45.8-102.3-102.3s45.8-102.3,102.3-102.3s102.3,45.8,102.3,102.3
	S361.9,468.5,305.4,468.5z M447.2,516.2l-24.5-7.7l-20.2,15.8l-0.2-25.7L381,484.2l24.3-8.1l7.1-24.7l15.3,20.6l25.7-0.9L438.5,492
	L447.2,516.2z M437.5,227.5l0.4,20l-16.2-11.8l-18.9,6.6l6.2-19l-12-15.9l20,0.1l11.4-16.5l6.1,19.1l19.2,5.8L437.5,227.5z"/>
<polygon points="264.6,257.3 304.4,379.8 433.3,379.8 329,455.6 368.8,578.2 264.6,502.4 160.3,578.2 200.1,455.6 95.8,379.8 
	224.7,379.8 "/>
</svg>
