<?xml version="1.0" encoding="utf-8"?>
<!-- Generator: Adobe Illustrator 25.4.8, SVG Export Plug-In . SVG Version: 6.00 Build 0)  -->
<svg version="1.1" id="Layer_1" xmlns="http://www.w3.org/2000/svg" xmlns:xlink="http://www.w3.org/1999/xlink" x="0px" y="0px"
	 viewBox="0 0 823.4 468.6" style="enable-background:new 0 0 823.4 468.6;" xml:space="preserve">
<style type="text/css">
	.st0{fill:#FFFFFF;stroke:#000000;stroke-miterlimit:10;}
</style>
<path class="st0" d="M82.5,246.4l5.8-16l-16-5.8l1.7-4.7l16,5.8l5.8-16l4.7,1.7l-5.8,16l16,5.8L109,238l-16-5.8l-5.8,16L82.5,246.4z
	"/>
<path class="st0" d="M87.5,246l8.9-16l-16-8.9l2.6-4.7l16,8.9l8.9-16l4.7,2.6l-8.9,16l16,8.9l-2.6,4.7l-16-8.9l-8.9,16L87.5,246z"/>
<path class="st0" d="M92.5,244.8l12-15.4l-15.4-12l3.5-4.5l15.4,12l12-15.4l4.5,3.5l-12,15.4l15.4,12l-3.5,4.5L109,233l-12,15.4
	L92.5,244.8z"/>
<path class="st0" d="M97.3,242.6l15.5-13.9l-13.9-15.5l4.5-4.1l13.9,15.5l15.5-13.9l4.1,4.5l-15.5,13.9l13.9,15.5l-4.5,4.1
	l-13.9-15.5l-15.5,13.9L97.3,242.6z"/>
<path class="st0" d="M102.5,240l18.5-12l-12-18.5l5.4-3.5l12,18.5l18.5-12l3.5,5.4l-18.5,12l12,18.5l-5.4,3.5l-12-18.5l-18.5,12
	L102.5,240z"/>
<path class="st0" d="M108.2,236.7l21.3-9.5l-9.5-21.3l6.3-2.8l9.5,21.3l21.3-9.5l2.8,6.3l-21.3,9.5L148,252l-6.3,2.8l-9.5-21.3
	L111,243L108.2,236.7z"/>
<path class="st0" d="M114.3,232.3l23.9-6l-6-23.9l7-1.8l6,23.9l23.9-6l1.8,7l-23.9,6l6,23.9l-7,1.8l-6-23.9l-23.9,6L114.3,232.3z"/>
<path class="st0" d="M121.1,227.7l25.8-2.3l-2.3-25.8l7.6-0.7l2.3,25.8l25.8-2.3l0.7,7.6l-25.8,2.3l2.3,25.8l-7.6,0.7l-2.3-25.8
	l-25.8,2.3L121.1,227.7z"/>
<path class="st0" d="M128.8,222.8l27.1,1.9l1.9-27.1l8,0.6l-1.9,27.1l27.1,1.9l-0.6,8l-27.1-1.9l-1.9,27.1l-8-0.6l1.9-27.1
	l-27.1-1.9L128.8,222.8z"/>
<path class="st0" d="M137.4,217l27.6,6.9l6.9-27.6l8.1,2l-6.9,27.6l27.6,6.9l-2,8.1l-27.6-6.9l-6.9,27.6l-8.1-2L163,232l-27.6-6.9
	L137.4,217z"/>
<path class="st0" d="M146.9,211.6l27.3,11.6l11.6-27.3l8,3.4l-11.6,27.3l27.3,11.6l-3.4,8l-27.3-11.6L167.2,262l-8-3.4l11.6-27.3
	l-27.3-11.6L146.9,211.6z"/>
<path class="st0" d="M191.5,121.9l8.2-22.6l7.4,2.7l6.5-17.9l17.9,6.5l2.7-7.4l22.6,8.2l-2.7,7.4l17.9,6.5l-6.5,17.9l7.4,2.7
	l-8.2,22.6l-7.4-2.7l-6.5,17.9l-17.9-6.5l-2.7,7.4l-22.6-8.2l2.7-7.4l-17.9-6.5l6.5-17.9L191.5,121.9z M233.8,140.5l2.7-7.4l7.4,2.7
	l4.9-13.3l-7.4-2.7l2.7-7.4l-13.3-4.9l-2.7,7.4l-7.4-2.7l-4.9,13.3l7.4,2.7l-2.7,7.4L233.8,140.5z"/>
<path class="st0" d="M183.7,119.1l9.6-21.6l7.1,3.2l7.7-17.2l17.2,7.7l3.2-7.1l21.6,9.6l-3.2,7.1l17.2,7.7l-7.7,17.2l7.1,3.2
	l-9.6,21.6l-7.1-3.2l-7.7,17.2l-17.2-7.7l-3.2,7.1l-21.6-9.6l3.2-7.1l-17.2-7.7l7.7-17.2L183.7,119.1z M224.1,140.3l3.2-7.1l7.1,3.2
	l5.7-12.8l-7.1-3.2l3.2-7.1l-12.8-5.7l-3.2,7.1l-7.1-3.2l-5.7,12.8l7.1,3.2l-3.2,7.1L224.1,140.3z"/>
<path class="st0" d="M176.2,116.4l11-20.6l6.8,3.6l8.7-16.4l16.4,8.7l3.6-6.8l20.6,11l-3.6,6.8l16.4,8.7l-8.7,16.4l6.8,3.6l-11,20.6
	l-6.8-3.6l-8.7,16.4l-16.4-8.7l-3.6,6.8l-20.6-11l3.6-6.8l-16.4-8.7l8.7-16.4L176.2,116.4z M214.5,140.1l3.6-6.8l6.8,3.6l6.5-12.2
	l-6.8-3.6l3.6-6.8l-12.2-6.5l-3.6,6.8l-6.8-3.6l-6.5,12.2l6.8,3.6l-3.6,6.8L214.5,140.1z"/>
<path class="st0" d="M169,113.2l12.6-19.3l6.4,4.1l10-15.4l15.4,10l4.1-6.4l19.3,12.6l-4.1,6.4l15.4,10l-10,15.4l6.4,4.1L231.9,154
	l-6.4-4.1l-10,15.4l-15.4-10l-4.1,6.4l-19.3-12.6l4.1-6.4l-15.4-10l10-15.4L169,113.2z M204.6,139.8l4.1-6.4l6.4,4.1l7.4-11.4
	l-6.4-4.1l4.1-6.4l-11.4-7.4l-4.1,6.4l-6.4-4.1l-7.4,11.4l6.4,4.1l-4.1,6.4L204.6,139.8z"/>
<path class="st0" d="M161.8,110.8l13.7-18.2l6,4.5l10.9-14.5l14.5,10.9l4.5-6l18.2,13.7l-4.5,6l14.5,10.9l-10.9,14.5l6,4.5
	l-13.7,18.2l-6-4.5L204,165.2l-14.5-10.9l-4.5,6l-18.2-13.7l4.5-6l-14.5-10.9l10.9-14.5L161.8,110.8z M195,139.4l4.5-6l6,4.5
	l8.1-10.7l-6-4.5l4.5-6l-10.7-8.1l-4.5,6l-6-4.5l-8.1,10.7l6,4.5l-4.5,6L195,139.4z"/>
<path class="st0" d="M155.1,107.9l15-16.7l5.5,4.9l11.9-13.3l13.3,11.9l4.9-5.5l16.7,15l-4.9,5.5l13.3,11.9l-11.9,13.3l5.5,4.9
	l-15,16.7l-5.5-4.9L191.9,165l-13.3-11.9l-4.9,5.5l-16.7-15l4.9-5.5l-13.3-11.9l11.9-13.3L155.1,107.9z M185.3,138.8l4.9-5.5
	l5.5,4.9l8.9-9.9l-5.5-4.9l4.9-5.5l-9.9-8.9l-4.9,5.5l-5.5-4.9l-8.9,9.9l5.5,4.9l-4.9,5.5L185.3,138.8z"/>
<path class="st0" d="M148.3,105.8l15.9-15.4l5.1,5.2l12.7-12.2l12.2,12.7l5.2-5.1l15.4,15.9l-5.2,5.1l12.2,12.7l-12.7,12.2l5.1,5.2
	l-15.9,15.4l-5.1-5.2l-12.7,12.2l-12.2-12.7l-5.2,5.1L147.7,141l5.2-5.1l-12.2-12.7l12.7-12.2L148.3,105.8z M175.8,138.3l5.2-5.1
	l5.1,5.2l9.4-9.1l-5.1-5.2l5.2-5.1l-9.1-9.4l-5.2,5.1l-5.1-5.2l-9.4,9.1l5.1,5.2l-5.2,5.1L175.8,138.3z"/>
<path class="st0" d="M141.9,103.3l17-13.7l4.5,5.6l13.5-10.9l10.9,13.5l5.6-4.5l13.7,17l-5.6,4.5l10.9,13.5L199,139.1l4.5,5.6
	l-17,13.7l-4.5-5.6l-13.5,10.9l-10.9-13.5l-5.6,4.5l-13.7-17l5.6-4.5L133,119.8l13.5-10.9L141.9,103.3z M166.2,137.5l5.6-4.5
	l4.5,5.6l10-8.1l-4.5-5.6l5.6-4.5l-8.1-10l-5.6,4.5l-4.5-5.6l-10,8.1l4.5,5.6l-5.6,4.5L166.2,137.5z"/>
<path class="st0" d="M135.4,101.5L153,89.1l4.1,5.8l14-9.8l9.8,14l5.8-4.1l12.3,17.6l-5.8,4.1l9.8,14l-14,9.8l4.1,5.8l-17.6,12.3
	l-4.1-5.8l-14,9.8l-9.8-14l-5.8,4.1l-12.3-17.6l5.8-4.1l-9.8-14l14-9.8L135.4,101.5z M156.9,136.9l5.8-4.1l4.1,5.8l10.4-7.3
	l-4.1-5.8l5.8-4.1l-7.3-10.4l-5.8,4.1l-4.1-5.8l-10.4,7.3l4.1,5.8l-5.8,4.1L156.9,136.9z"/>
<path class="st0" d="M129.3,99.4l18.4-10.6l3.5,6l14.6-8.4l8.4,14.6l6-3.5l10.6,18.4l-6,3.5l8.4,14.6l-14.6,8.4l3.5,6l-18.4,10.6
	l-3.5-6l-14.6,8.4l-8.4-14.6l-6,3.5L120.6,132l6-3.5l-8.4-14.6l14.6-8.4L129.3,99.4z M147.4,136l6-3.5l3.5,6l10.9-6.3l-3.5-6l6-3.5
	l-6.3-10.9l-6,3.5l-3.5-6l-10.9,6.3l3.5,6l-6,3.5L147.4,136z"/>
<path class="st0" d="M123,98l18.8-9.2l3,6.2l14.9-7.3l7.3,14.9l6.2-3l9.2,18.8l-6.2,3l7.3,14.9l-14.9,7.3l3,6.2l-18.8,9.2l-3-6.2
	l-14.9,7.3l-7.3-14.9l-6.2,3l-9.2-18.8l6.2-3l-7.3-14.9l14.9-7.3L123,98z M138.2,135.2l6.2-3l3,6.2l11.1-5.4l-3-6.2l6.2-3l-5.4-11.1
	l-6.2,3l-3-6.2l-11.1,5.4l3,6.2l-6.2,3L138.2,135.2z"/>
<path class="st0" d="M117.1,96.4l19.2-7.4l2.4,6.3l15.3-5.9l5.9,15.3l6.3-2.4l7.4,19.2l-6.3,2.4l5.9,15.3l-15.3,5.9l2.4,6.3
	l-19.2,7.4l-2.4-6.3l-15.3,5.9l-5.9-15.3l-6.3,2.4l-7.4-19.2l6.3-2.4l-5.9-15.3l15.3-5.9L117.1,96.4z M128.9,134.2l6.3-2.4l2.4,6.3
	l11.4-4.4l-2.4-6.3l6.3-2.4l-4.4-11.4l-6.3,2.4l-2.4-6.3l-11.4,4.4l2.4,6.3l-6.3,2.4L128.9,134.2z"/>
<path class="st0" d="M110.9,95.4l19.4-5.9l2,6.4l15.4-4.7l4.7,15.4l6.4-2l5.9,19.4l-6.4,2l4.7,15.4l-15.4,4.7l2,6.4l-19.4,5.9
	l-2-6.4l-15.4,4.7l-4.7-15.4l-6.4,2l-5.9-19.4l6.4-2l-4.7-15.4l15.4-4.7L110.9,95.4z M119.9,133.4l6.4-2l2,6.4l11.5-3.5l-2-6.4
	l6.4-2l-3.5-11.5l-6.4,2l-2-6.4l-11.5,3.5l2,6.4l-6.4,2L119.9,133.4z"/>
<path class="st0" d="M105.2,94.3l19.5-4.1l1.4,6.4l15.5-3.3l3.3,15.5l6.4-1.4l4.1,19.5l-6.4,1.4l3.3,15.5l-15.5,3.3l1.4,6.4
	l-19.5,4.1l-1.4-6.4l-15.5,3.3l-3.3-15.5l-6.4,1.4l-4.1-19.5l6.4-1.4L91.1,104l15.5-3.3L105.2,94.3z M110.8,132.3l6.4-1.4l1.4,6.4
	l11.5-2.5l-1.4-6.4l6.4-1.4l-2.5-11.5l-6.4,1.4l-1.4-6.4l-11.5,2.5l1.4,6.4l-6.4,1.4L110.8,132.3z"/>
<path class="st0" d="M99.1,93.7l19.5-2.7l0.9,6.4l15.5-2.2l2.2,15.5l6.4-0.9l2.7,19.5l-6.4,0.9l2.2,15.5l-15.5,2.2l0.9,6.4
	l-19.5,2.7l-0.9-6.4l-15.5,2.2l-2.2-15.5l-6.4,0.9l-2.7-19.5l6.4-0.9l-2.2-15.5l15.5-2.2L99.1,93.7z M101.9,131.4l6.4-0.9l0.9,6.4
	l11.5-1.6l-0.9-6.4l6.4-0.9l-1.6-11.5l-6.4,0.9l-0.9-6.4l-11.5,1.6l0.9,6.4l-6.4,0.9L101.9,131.4z"/>
<path class="st0" d="M93.4,93.1l19.3-1l0.3,6.4l15.4-0.8l0.8,15.4l6.4-0.3l1,19.3l-6.4,0.3l0.8,15.4l-15.4,0.8l0.3,6.4l-19.3,1
	l-0.3-6.4L81,150.3l-0.8-15.4l-6.4,0.3l-1-19.3l6.4-0.3l-0.8-15.4l15.4-0.8L93.4,93.1z M93,130.3l6.4-0.3l0.3,6.4l11.4-0.6l-0.3-6.4
	l6.4-0.3l-0.6-11.4l-6.4,0.3l-0.3-6.4l-11.4,0.6l0.3,6.4l-6.4,0.3L93,130.3z"/>
<path class="st0" d="M87.3,92.9l19,0.3l-0.1,6.3l15.1,0.3l-0.3,15.1l6.3,0.1l-0.3,19l-6.3-0.1l-0.3,15.1l-15.1-0.3l-0.1,6.3l-19-0.3
	l0.1-6.3l-15.1-0.3l0.3-15.1l-6.3-0.1l0.3-19l6.3,0.1L72,98.9l15.1,0.3L87.3,92.9z M84.2,129.4l6.3,0.1l-0.1,6.3l11.2,0.2l0.1-6.3
	l6.3,0.1l0.2-11.2l-6.3-0.1l0.1-6.3L90.8,112l-0.1,6.3l-6.3-0.1L84.2,129.4z"/>
<path class="st0" d="M85.4,96.5l18.6,2l-0.6,6.1l14.8,1.6l-1.6,14.8l6.1,0.6l-2,18.6l-6.1-0.6l-1.6,14.8l-14.8-1.6l-0.6,6.1L79,157
	l0.6-6.1l-14.8-1.6l1.6-14.8l-6.1-0.6l2-18.6l6.1,0.6l1.6-14.8l14.8,1.6L85.4,96.5z M79.3,132l6.1,0.6l-0.6,6.1l11,1.2l0.6-6.1
	l6.1,0.6l1.2-11l-6.1-0.6l0.6-6.1l-11-1.2l-0.6,6.1l-6.1-0.6L79.3,132z"/>
<path class="st0" d="M87.7,105.2l18.1,3.2l-1.1,6l14.4,2.5l-2.5,14.4l6,1.1l-3.2,18.1l-6-1.1l-2.5,14.4l-14.4-2.5l-1.1,6l-18.1-3.2
	l1.1-6l-14.4-2.5l2.5-14.4l-6-1.1l3.2-18.1l6,1.1l2.5-14.4l14.4,2.5L87.7,105.2z M79.3,139.6l6,1.1l-1.1,6l10.7,1.9l1.1-6l6,1.1
	l1.9-10.7l-6-1.1l1.1-6L88.2,124l-1.1,6l-6-1.1L79.3,139.6z"/>
<path class="st0" d="M90.4,114l17.5,4.7l-1.5,5.8l13.9,3.7l-3.7,13.9l5.8,1.5l-4.7,17.5l-5.8-1.5l-3.7,13.9l-13.9-3.7l-1.5,5.8
	l-17.5-4.7l1.5-5.8l-13.9-3.7l3.7-13.9l-5.8-1.5l4.7-17.5l5.8,1.5L75,116l13.9,3.7L90.4,114z M79.2,147l5.8,1.5l-1.5,5.8l10.3,2.8
	l1.5-5.8l5.8,1.5l2.8-10.3l-5.8-1.5l1.5-5.8l-10.3-2.8l-1.5,5.8l-5.8-1.5L79.2,147z"/>
<path class="st0" d="M92.5,123l16.8,5.8l-1.9,5.5l13.4,4.6l-4.6,13.4l5.5,1.9l-5.8,16.8l-5.5-1.9l-4.6,13.4l-13.4-4.6l-1.9,5.5
	l-16.8-5.8l1.9-5.5l-13.4-4.6l4.6-13.4l-5.5-1.9l5.8-16.8l5.5,1.9l4.6-13.4l13.4,4.6L92.5,123z M79.3,154.6l5.5,1.9l-1.9,5.5
	l9.9,3.4l1.9-5.5l5.5,1.9l3.4-9.9l-5.5-1.9l1.9-5.5l-9.9-3.4l-1.9,5.5l-5.5-1.9L79.3,154.6z"/>
<path class="st0" d="M95.1,132.3l16,7.1l-2.3,5.3l12.7,5.7l-5.7,12.7l5.3,2.3l-7.1,16l-5.3-2.3l-5.7,12.7L90.3,186l-2.3,5.3l-16-7.1
	l2.3-5.3l-12.7-5.7l5.7-12.7l-5.3-2.3l7.1-16l5.3,2.3l5.7-12.7l12.7,5.7L95.1,132.3z M79.5,162l5.3,2.3l-2.3,5.3l9.4,4.2l2.3-5.3
	l5.3,2.3l4.2-9.4l-5.3-2.3l2.3-5.3l-9.4-4.2l-2.3,5.3l-5.3-2.3L79.5,162z"/>
<path class="st0" d="M97,141.6l15.1,8.1l-2.7,5l12.1,6.4l-6.4,12.1l5,2.7l-8.1,15.1l-5-2.7l-6.4,12.1l-12.1-6.4l-2.7,5l-15.1-8.1
	l2.7-5l-12.1-6.4l6.4-12.1l-5-2.7l8.1-15.1l5,2.7l6.4-12.1l12.1,6.4L97,141.6z M79.7,169.7l5,2.7l-2.7,5l9,4.8l2.7-5l5,2.7l4.8-9
	l-5-2.7l2.7-5l-9-4.8l-2.7,5l-5-2.7L79.7,169.7z"/>
<path class="st0" d="M99.4,151.2l14.1,9.2l-3,4.7l11.2,7.3l-7.3,11.2l4.7,3l-9.2,14.1l-4.7-3l-7.3,11.2l-11.2-7.3l-3,4.7l-14.1-9.2
	l3-4.7l-11.2-7.3l7.3-11.2l-4.7-3l9.2-14.1l4.7,3l7.3-11.2l11.2,7.3L99.4,151.2z M80,177.2l4.7,3l-3,4.7l8.4,5.4l3-4.7l4.7,3
	l5.4-8.4l-4.7-3l3-4.7l-8.4-5.4l-3,4.7l-4.7-3L80,177.2z"/>
<path class="st0" d="M101.1,160.8l13.2,10l-3.3,4.4l10.5,7.9l-7.9,10.5l4.4,3.3L108,210l-4.4-3.3l-7.9,10.5l-10.5-7.9l-3.3,4.4
	l-13.2-10l3.3-4.4l-10.5-7.9l7.9-10.5l-4.4-3.3l10-13.2l4.4,3.3l7.9-10.5l10.5,7.9L101.1,160.8z M80.3,184.9l4.4,3.3l-3.3,4.4
	l7.8,5.9l3.3-4.4l4.4,3.3l5.9-7.8l-4.4-3.3l3.3-4.4l-7.8-5.9l-3.3,4.4l-4.4-3.3L80.3,184.9z"/>
<path class="st0" d="M103.1,170.7l12.1,10.9l-3.6,4l9.6,8.6l-8.6,9.6l4,3.6l-10.9,12.1l-4-3.6l-8.6,9.6l-9.6-8.6l-3.6,4l-12.1-10.9
	l3.6-4l-9.6-8.6l8.6-9.6l-4-3.6l10.9-12.1l4,3.6l8.6-9.6l9.6,8.6L103.1,170.7z M80.8,192.5l4,3.6l-3.6,4l7.1,6.4l3.6-4l4,3.6
	l6.4-7.1l-4-3.6l3.6-4l-7.1-6.4l-3.6,4l-4-3.6L80.8,192.5z"/>
<path class="st0" d="M104.6,180.6l11.1,11.4l-3.8,3.6l8.8,9.1l-9.1,8.8l3.6,3.8l-11.4,11.1l-3.6-3.8l-9.1,8.8l-8.8-9.1l-3.8,3.6
	l-11.1-11.4l3.8-3.6l-8.8-9.1l9.1-8.8l-3.6-3.8l11.4-11.1l3.6,3.8l9.1-8.8l8.8,9.1L104.6,180.6z M81.2,200.4l3.6,3.8l-3.8,3.6
	l6.5,6.8l3.8-3.6l3.6,3.8l6.8-6.5l-3.6-3.8l3.8-3.6l-6.5-6.8l-3.8,3.6l-3.6-3.8L81.2,200.4z"/>
<path class="st0" d="M106.3,190.7l9.8,12.1l-4,3.2l7.8,9.6l-9.6,7.8l3.2,4l-12.1,9.8l-3.2-4l-9.6,7.8l-7.8-9.6l-4,3.2l-9.8-12.1
	l4-3.2l-7.8-9.6l9.6-7.8l-3.2-4l12.1-9.8l3.2,4l9.6-7.8l7.8,9.6L106.3,190.7z M81.8,208.1l3.2,4l-4,3.2l5.8,7.2l4-3.2l3.2,4l7.2-5.8
	l-3.2-4l4-3.2l-5.8-7.2l-4,3.2l-3.2-4L81.8,208.1z"/>
<path class="st0" d="M107.5,200.7l8.8,12.5l-4.1,2.9l7,10l-10,7l2.9,4.1L99.5,246l-2.9-4.1l-10,7l-7-10l-4.1,2.9l-8.8-12.5l4.1-2.9
	l-7-10l10-7l-2.9-4.1l12.5-8.8l2.9,4.1l10-7l7,10L107.5,200.7z M82.3,216l2.9,4.1l-4.1,2.9l5.2,7.4l4.1-2.9l2.9,4.1l7.4-5.2
	l-2.9-4.1l4.1-2.9l-5.2-7.4l-4.1,2.9l-2.9-4.1L82.3,216z"/>
<path class="st0" d="M108.9,211.1l7.5,13l-4.3,2.5l6,10.3l-10.3,6l2.5,4.3l-13,7.5l-2.5-4.3l-10.3,6l-6-10.3l-4.3,2.5l-7.5-13
	L71,233l-6-10.3l10.3-6l-2.5-4.3l13-7.5l2.5,4.3l10.3-6l6,10.3L108.9,211.1z M83,223.9l2.5,4.3l-4.3,2.5l4.4,7.7l4.3-2.5l2.5,4.3
	l7.7-4.4l-2.5-4.3l4.3-2.5l-4.4-7.7l-4.3,2.5l-2.5-4.3L83,223.9z"/>
<path class="st0" d="M109.7,221.2l6.4,13.2l-4.3,2.1l5.1,10.5l-10.5,5.1l2.1,4.3l-13.2,6.4l-2.1-4.3l-10.5,5.1l-5.1-10.5l-4.3,2.1
	l-6.4-13.2l4.3-2.1l-5.1-10.5l10.5-5.1l-2.1-4.3l13.2-6.4l2.1,4.3l10.5-5.1l5.1,10.5L109.7,221.2z M83.6,231.9l2.1,4.3l-4.3,2.1
	l3.8,7.8l4.3-2.1l2.1,4.3l7.8-3.8l-2.1-4.3l4.3-2.1l-3.8-7.8l-4.3,2.1l-2.1-4.3L83.6,231.9z"/>
<path class="st0" d="M110.7,231.7l5.1,13.4l-4.4,1.7l4.1,10.7l-10.7,4.1l1.7,4.4l-13.4,5.1l-1.7-4.4l-10.7,4.1l-4.1-10.7l-4.4,1.7
	l-5.1-13.4l4.4-1.7L67.5,236l10.7-4.1l-1.7-4.4l13.4-5.1l1.7,4.4l10.7-4.1l4.1,10.7L110.7,231.7z M84.4,239.9l1.7,4.4l-4.4,1.7
	l3,7.9l4.4-1.7l1.7,4.4l7.9-3l-1.7-4.4l4.4-1.7l-3-7.9l-4.4,1.7l-1.7-4.4L84.4,239.9z"/>
<path class="st0" d="M111.3,241.9l4.1,13.4l-4.4,1.4l3.3,10.7l-10.7,3.3l1.4,4.4l-13.4,4.1l-1.4-4.4L79.4,278l-3.3-10.7l-4.4,1.4
	l-4.1-13.4l4.4-1.4l-3.3-10.7l10.7-3.3l-1.4-4.4l13.4-4.1l1.4,4.4l10.7-3.3l3.3,10.7L111.3,241.9z M85,248.1l1.4,4.4l-4.4,1.4
	l2.4,7.9l4.4-1.4l1.4,4.4l7.9-2.4l-1.4-4.4l4.4-1.4l-2.4-7.9l-4.4,1.4l-1.4-4.4L85,248.1z"/>
<path class="st0" d="M111.9,252.4l2.9,13.4l-4.4,0.9l2.3,10.7l-10.7,2.3l0.9,4.4L89.5,287l-0.9-4.4l-10.7,2.3l-2.3-10.7l-4.4,0.9
	l-2.9-13.4l4.4-0.9L70.4,250l10.7-2.3l-0.9-4.4l13.4-2.9l0.9,4.4l10.7-2.3l2.3,10.7L111.9,252.4z M85.8,256.2l0.9,4.4l-4.4,0.9
	l1.7,7.9l4.4-0.9l0.9,4.4l7.9-1.7l-0.9-4.4l4.4-0.9l-1.7-7.9l-4.4,0.9l-0.9-4.4L85.8,256.2z"/>
<path class="st0" d="M112.2,262.6l1.9,13.3l-4.4,0.6l1.5,10.6l-10.6,1.5l0.6,4.4l-13.3,1.9l-0.6-4.4l-10.6,1.5l-1.5-10.6l-4.4,0.6
	L69,268.6l4.4-0.6l-1.5-10.6l10.6-1.5l-0.6-4.4l13.3-1.9l0.6,4.4l10.6-1.5l1.5,10.6L112.2,262.6z M86.4,264.5l0.6,4.4l-4.4,0.6
	l1.1,7.9l4.4-0.6l0.6,4.4l7.9-1.1l-0.6-4.4l4.4-0.6l-1.1-7.9l-4.4,0.6l-0.6-4.4L86.4,264.5z"/>
<path class="st0" d="M112.5,273.1l0.7,13.1l-4.3,0.2l0.5,10.4L99,297.4l0.2,4.3l-13.1,0.7l-0.2-4.3l-10.4,0.5l-0.5-10.4l-4.3,0.2
	l-0.7-13.1l4.3-0.2l-0.5-10.4l10.4-0.5l-0.2-4.3l13.1-0.7l0.2,4.3l10.4-0.5l0.5,10.4L112.5,273.1z M87.2,272.8l0.2,4.3l-4.3,0.2
	l0.4,7.7l4.3-0.2l0.2,4.3l7.7-0.4l-0.2-4.3l4.3-0.2l-0.4-7.7l-4.3,0.2l-0.2-4.3L87.2,272.8z"/>
<path class="st0" d="M112.4,283.2l-0.2,12.8l-4.2-0.1l-0.2,10.2l-10.2-0.2l-0.1,4.2l-12.8-0.2l0.1-4.2l-10.2-0.2l0.2-10.2l-4.2-0.1
	l0.2-12.8l4.2,0.1l0.2-10.2l10.2,0.2l0.1-4.2l12.8,0.2l-0.1,4.2l10.2,0.2l-0.2,10.2L112.4,283.2z M87.9,281.2l-0.1,4.2l-4.2-0.1
	l-0.1,7.6l4.2,0.1l-0.1,4.2l7.6,0.1l0.1-4.2l4.2,0.1l0.1-7.6l-4.2-0.1l0.1-4.2L87.9,281.2z"/>
<path class="st0" d="M112.4,293.7l-1.3,12.4l-4.1-0.4l-1,9.9l-9.9-1l-0.4,4.1l-12.4-1.3l0.4-4.1l-9.9-1l1-9.9l-4.1-0.4l1.3-12.4
	l4.1,0.4l1-9.9l9.9,1l0.4-4.1l12.4,1.3l-0.4,4.1l9.9,1l-1,9.9L112.4,293.7z M88.7,289.6l-0.4,4.1l-4.1-0.4l-0.8,7.3l4.1,0.4
	l-0.4,4.1l7.3,0.8l0.4-4.1l4.1,0.4l0.8-7.3l-4.1-0.4l0.4-4.1L88.7,289.6z"/>
<path class="st0" d="M112.1,303.7l-2.1,12l-4-0.7l-1.7,9.5l-9.5-1.7l-0.7,4l-12-2.1l0.7-4l-9.5-1.7l1.7-9.5l-4-0.7l2.1-12l4,0.7
	l1.7-9.5l9.5,1.7l0.7-4l12,2.1l-0.7,4l9.5,1.7l-1.7,9.5L112.1,303.7z M89.3,298.1l-0.7,4l-4-0.7l-1.3,7.1l4,0.7l-0.7,4l7.1,1.3
	l0.7-4l4,0.7l1.3-7.1l-4-0.7l0.7-4L89.3,298.1z"/>
<path class="st0" d="M111.7,314l-3.1,11.5l-3.8-1l-2.4,9.1l-9.1-2.4l-1,3.8l-11.5-3.1l1-3.8l-9.1-2.4l2.4-9.1l-3.8-1l3.1-11.5l3.8,1
	l2.4-9.1l9.1,2.4l1-3.8l11.5,3.1l-1,3.8l9.1,2.4l-2.4,9.1L111.7,314z M90.1,306.7l-1,3.8l-3.8-1l-1.8,6.8l3.8,1l-1,3.8l6.8,1.8
	l1-3.8l3.8,1l1.8-6.8l-3.8-1l1-3.8L90.1,306.7z"/>
<path class="st0" d="M111.2,323.9l-3.8,10.9l-3.6-1.2l-3,8.7l-8.7-3l-1.2,3.6l-10.9-3.8l1.2-3.6l-8.7-3l3-8.7l-3.6-1.2l3.8-10.9
	l3.6,1.2l3-8.7l8.7,3l1.2-3.6l10.9,3.8l-1.2,3.6l8.7,3l-3,8.7L111.2,323.9z M90.7,315.3l-1.2,3.6l-3.6-1.2l-2.2,6.5l3.6,1.2
	l-1.2,3.6l6.5,2.2l1.2-3.6l3.6,1.2l2.2-6.5l-3.6-1.2l1.2-3.6L90.7,315.3z"/>
<path class="st0" d="M110.5,334l-4.6,10.3l-3.4-1.5l-3.6,8.2l-8.2-3.6l-1.5,3.4L79,346.2l1.5-3.4l-8.2-3.6l3.6-8.2l-3.4-1.5
	l4.6-10.3l3.4,1.5l3.6-8.2l8.2,3.6l1.5-3.4l10.3,4.6l-1.5,3.4l8.2,3.6l-3.6,8.2L110.5,334z M91.4,324l-1.5,3.4l-3.4-1.5l-2.7,6.1
	l3.4,1.5l-1.5,3.4l6.1,2.7l1.5-3.4l3.4,1.5l2.7-6.1l-3.4-1.5l1.5-3.4L91.4,324z"/>
<path class="st0" d="M339.8,107.8l13.3-36.6l36.6,13.3l-13.3,36.6L339.8,107.8z M363.1,157.8l13.3-36.6l36.6,13.3l-13.3,36.6
	L363.1,157.8z"/>
<path class="st0" d="M333,107.2l14.1-34.9l34.9,14.1l-14.1,34.9L333,107.2z M353.8,156.2l14.1-34.9l34.9,14.1l-14.1,34.9
	L353.8,156.2z"/>
<path class="st0" d="M326.1,107.3L341,74l33.4,14.9l-14.9,33.4L326.1,107.3z M344.6,155.6l14.9-33.4l33.4,14.9L378,170.4
	L344.6,155.6z"/>
<path class="st0" d="M319.2,108.2l15.6-32l32,15.6l-15.6,32L319.2,108.2z M335.5,155.8l15.6-32l32,15.6l-15.6,32L335.5,155.8z"/>
<path class="st0" d="M312.2,109.8l16.3-30.7l30.7,16.3L343,126.2L312.2,109.8z M326.6,156.9l16.3-30.7l30.7,16.3l-16.3,30.7
	L326.6,156.9z"/>
<path class="st0" d="M305.5,112.2l17.1-29.6l29.6,17.1l-17.1,29.6L305.5,112.2z M318,158.8l17.1-29.6l29.6,17.1l-17.1,29.6
	L318,158.8z"/>
<path class="st0" d="M299.4,114.8l18.2-28l28,18.2l-18.2,28L299.4,114.8z M309.3,161.1l18.2-28l28,18.2l-18.2,28L309.3,161.1z"/>
<path class="st0" d="M293.6,118.9l18.7-26.7l26.7,18.7l-18.7,26.7L293.6,118.9z M301.6,164.2l18.7-26.7l26.7,18.7l-18.7,26.7
	L301.6,164.2z"/>
<path class="st0" d="M288.5,123.9l18.9-25.1l25.1,18.9l-18.9,25.1L288.5,123.9z M294.7,167.9l18.9-25.1l25.1,18.9l-18.9,25.1
	L294.7,167.9z"/>
<path class="st0" d="M284.2,129.9l18.8-23.2l23.2,18.8l-18.8,23.2L284.2,129.9z M288.6,172l18.8-23.2l23.2,18.8l-18.8,23.2
	L288.6,172z"/>
<path class="st0" d="M280.6,136.6l18.5-21.2l21.2,18.5L301.8,155L280.6,136.6z M283.3,176.3l18.5-21.2l21.2,18.5l-18.5,21.2
	L283.3,176.3z"/>
<path class="st0" d="M277.6,144l17.9-19.2l19.2,17.9l-17.9,19.2L277.6,144z M278.9,181l17.9-19.2l19.2,17.9L298,198.9L278.9,181z"/>
<path class="st0" d="M275.5,151.7l17.4-16.8l16.8,17.4l-17.4,16.8L275.5,151.7z M274.9,186l17.4-16.8l16.8,17.4l-17.4,16.8
	L274.9,186z"/>
<path class="st0" d="M273.6,160.1l16.7-15.1l15.1,16.7l-16.7,15.1L273.6,160.1z M271.9,191.9l16.7-15.1l15.1,16.7L287,208.6
	L271.9,191.9z"/>
<path class="st0" d="M272,168.5l16.2-13.6l13.6,16.2l-16.2,13.6L272,168.5z M269.4,198.4l16.2-13.6l13.6,16.2L283,214.6L269.4,198.4
	z"/>
<path class="st0" d="M270.6,176.8l16.1-12.6l12.6,16.1l-16.1,12.6L270.6,176.8z M267.1,205.5l16.1-12.6l12.6,16.1l-16.1,12.6
	L267.1,205.5z"/>
<path class="st0" d="M269.4,184.7l16.5-12l12,16.5l-16.5,12L269.4,184.7z M264.9,213.1l16.5-12l12,16.5l-16.5,12L264.9,213.1z"/>
<path class="st0" d="M268.3,192.2l17.4-11.7l11.7,17.4l-17.4,11.7L268.3,192.2z M262.7,221.3l17.4-11.7l11.7,17.4l-17.4,11.7
	L262.7,221.3z"/>
<path class="st0" d="M267.8,199l19-11.4l11.4,19l-19,11.4L267.8,199z M260.2,229.5l19-11.4l11.4,19l-19,11.4L260.2,229.5z"/>
<path class="st0" d="M267.3,205.6l20.9-11.6l11.6,20.9l-20.9,11.6L267.3,205.6z M257.9,238.1l20.9-11.6l11.6,20.9l-20.9,11.6
	L257.9,238.1z"/>
<path class="st0" d="M267.1,211.9l23.1-11.8l11.8,23.1L278.9,235L267.1,211.9z M255.8,246.8l23.1-11.8l11.8,23.1l-23.1,11.8
	L255.8,246.8z"/>
<path class="st0" d="M267.5,218.2l25.4-11.8l11.8,25.4l-25.4,11.8L267.5,218.2z M254,255.3l25.4-11.8l11.8,25.4l-25.4,11.8
	L254,255.3z"/>
<path class="st0" d="M268.4,224.4l27.6-11.7l11.7,27.6L280.1,252L268.4,224.4z M252.5,263.7l27.6-11.7l11.7,27.6l-27.6,11.7
	L252.5,263.7z"/>
<path class="st0" d="M270.5,230.6l29.8-10.9l10.9,29.8l-29.8,10.9L270.5,230.6z M251.5,271.2l29.8-10.9l10.9,29.8l-29.8,10.9
	L251.5,271.2z"/>
<path class="st0" d="M272.9,236.9l31.8-10.3l10.3,31.8l-31.8,10.3L272.9,236.9z M251.4,279l31.8-10.3l10.3,31.8l-31.8,10.3
	L251.4,279z"/>
<path class="st0" d="M276,243.1l33.7-9.7l9.7,33.7l-33.7,9.7L276,243.1z M251.9,286.5l33.7-9.7l9.7,33.7l-33.7,9.7L251.9,286.5z"/>
<path class="st0" d="M279.8,249.2l35.5-8.9l8.9,35.5l-35.5,8.9L279.8,249.2z M253.1,293.6l35.5-8.9l8.9,35.5l-35.5,8.9L253.1,293.6z
	"/>
<path class="st0" d="M284.4,255.4l37-7.9l7.9,37l-37,7.9L284.4,255.4z M255.3,300.3l37-7.9l7.9,37l-37,7.9L255.3,300.3z"/>
<path class="st0" d="M289.9,261.6l38.1-6.7l6.7,38.1l-38.1,6.7L289.9,261.6z M258.5,306.5l38.1-6.7l6.7,38.1l-38.1,6.7L258.5,306.5z
	"/>
<path class="st0" d="M296.7,268l38.7-4.8l4.8,38.7l-38.7,4.8L296.7,268z M262.7,311.5l38.7-4.8l4.8,38.7l-38.7,4.8L262.7,311.5z"/>
<path class="st0" d="M303.6,274.6l38.6-3.4l3.4,38.6l-38.6,3.4L303.6,274.6z M268.4,316.6l38.6-3.4l3.4,38.6l-38.6,3.4L268.4,316.6z
	"/>
<path class="st0" d="M311.1,281.3l37.8-2l2,37.8l-37.8,2L311.1,281.3z M275.3,321.1l37.8-2l2,37.8l-37.8,2L275.3,321.1z"/>
<path class="st0" d="M319.1,288l36.3-0.6l0.6,36.3l-36.3,0.6L319.1,288z M283.4,325l36.3-0.6l0.6,36.3l-36.3,0.6L283.4,325z"/>
<path class="st0" d="M327.6,294.4L362,295l-0.6,34.4l-34.4-0.6L327.6,294.4z M292.5,328.3l34.4,0.6l-0.6,34.4l-34.4-0.6L292.5,328.3
	z"/>
<path class="st0" d="M336.3,300.3l32.3,1.7l-1.7,32.3l-32.3-1.7L336.3,300.3z M302.3,330.9l32.3,1.7l-1.7,32.3l-32.3-1.7
	L302.3,330.9z"/>
<path class="st0" d="M345.7,305.5l30.1,3.2l-3.2,30.1l-30.1-3.2L345.7,305.5z M312.4,332.5l30.1,3.2l-3.2,30.1l-30.1-3.2
	L312.4,332.5z"/>
<path class="st0" d="M354.7,309.9l28.1,3.9l-3.9,28.1l-28.1-3.9L354.7,309.9z M322.6,334l28.1,3.9l-3.9,28.1l-28.1-3.9L322.6,334z"
	/>
<path class="st0" d="M363.7,313.1l26.5,4.7l-4.7,26.5l-26.5-4.7L363.7,313.1z M332.6,334.9l26.5,4.7l-4.7,26.5l-26.5-4.7
	L332.6,334.9z"/>
<path class="st0" d="M372.9,315.3l25.3,5.4l-5.4,25.3l-25.3-5.4L372.9,315.3z M342.2,335.2l25.3,5.4l-5.4,25.3l-25.3-5.4
	L342.2,335.2z"/>
<path class="st0" d="M382.1,316.4l24.6,6.1l-6.1,24.6l-24.6-6.1L382.1,316.4z M351.4,334.8l24.6,6.1l-6.1,24.6l-24.6-6.1
	L351.4,334.8z"/>
<path class="st0" d="M391.8,316.5l24.1,7.4l-7.4,24.1l-24.1-7.4L391.8,316.5z M360.4,333.2l24.1,7.4l-7.4,24.1l-24.1-7.4
	L360.4,333.2z"/>
<path class="st0" d="M401.2,315.6l24.1,8.3L417,348l-24.1-8.3L401.2,315.6z M368.9,331.4l24.1,8.3l-8.3,24.1l-24.1-8.3L368.9,331.4z
	"/>
<path class="st0" d="M410.5,314l24.1,9.3l-9.3,24.1l-24.1-9.3L410.5,314z M377.1,328.9l24.1,9.3l-9.3,24.1l-24.1-9.3L377.1,328.9z"
	/>
<path class="st0" d="M419.8,311.8L444,322l-10.3,24.2L409.5,336L419.8,311.8z M385.3,325.7l24.2,10.3l-10.3,24.2L375,349.9
	L385.3,325.7z"/>
<path class="st0" d="M428.7,309l24.1,11.2l-11.2,24.1l-24.1-11.2L428.7,309z M393.4,321.9l24.1,11.2l-11.2,24.1L382.2,346
	L393.4,321.9z"/>
<path class="st0" d="M437.3,305.7l23.8,12.1l-12.1,23.8l-23.8-12.1L437.3,305.7z M401.4,317.3l23.8,12.1L413,353.2l-23.8-12.1
	L401.4,317.3z"/>
<path class="st0" d="M445.6,301.9l23,13.3l-13.3,23l-23-13.3L445.6,301.9z M409.3,311.7l23,13.3l-13.3,23l-23-13.3L409.3,311.7z"/>
<path class="st0" d="M453,297.4l22.3,13.9l-13.9,22.3L439,319.7L453,297.4z M416.7,305.8l22.3,13.9L425.1,342l-22.3-13.9
	L416.7,305.8z"/>
<path class="st0" d="M459.7,292.3l21.6,14.5l-14.5,21.6l-21.6-14.5L459.7,292.3z M423.6,299.3l21.6,14.5l-14.5,21.6l-21.6-14.5
	L423.6,299.3z"/>
<path class="st0" d="M465.7,286.7l20.7,15l-15,20.7l-20.7-15L465.7,286.7z M430.1,292.4l20.7,15l-15,20.7L415,313L430.1,292.4z"/>
<path class="st0" d="M470.9,280.9l19.5,15.3l-15.3,19.5l-19.5-15.3L470.9,280.9z M436.1,285.2l19.5,15.3L440.4,320l-19.5-15.3
	L436.1,285.2z"/>
<path class="st0" d="M475.3,274.9l18.2,15.3l-15.3,18.2L460,293.1L475.3,274.9z M441.7,277.8l18.2,15.3l-15.3,18.2l-18.2-15.3
	L441.7,277.8z"/>
<path class="st0" d="M479.1,268.9l16.6,15.4l-15.4,16.6l-16.6-15.4L479.1,268.9z M447.1,270.1l16.6,15.4L448.2,302l-16.6-15.4
	L447.1,270.1z"/>
<path class="st0" d="M481.9,262.4l15.1,15.1l-15.1,15.1l-15.1-15.1L481.9,262.4z M451.6,262.4l15.1,15.1l-15.1,15.1l-15.1-15.1
	L451.6,262.4z"/>
<path class="st0" d="M484,255.6l13.8,14.8L483,284.2l-13.8-14.8L484,255.6z M455.3,254.6l13.8,14.8l-14.8,13.8l-13.8-14.8
	L455.3,254.6z"/>
<path class="st0" d="M485.6,248.4l12.7,14.7l-14.7,12.7l-12.7-14.7L485.6,248.4z M458.2,246.4l12.7,14.7l-14.7,12.7l-12.7-14.7
	L458.2,246.4z"/>
<path class="st0" d="M487,240.8l11.9,14.7l-14.7,11.9l-11.9-14.7L487,240.8z M460.3,238l11.9,14.7l-14.7,11.9l-11.9-14.7L460.3,238z
	"/>
<path class="st0" d="M488.6,233.1l11.2,15.4l-15.4,11.2l-11.2-15.4L488.6,233.1z M462.1,228.9l11.2,15.4l-15.4,11.2l-11.2-15.4
	L462.1,228.9z"/>
<path class="st0" d="M489.9,224.9l10.9,16.1l-16.1,10.9l-10.9-16.1L489.9,224.9z M462.9,219.7l10.9,16.1l-16.1,10.9l-10.9-16.1
	L462.9,219.7z"/>
<path class="st0" d="M491.1,216.5l10.8,17.2l-17.2,10.8l-10.8-17.2L491.1,216.5z M463.1,210.1l10.8,17.2l-17.2,10.8l-10.8-17.2
	L463.1,210.1z"/>
<path class="st0" d="M492.1,208.1l10.7,18.6l-18.6,10.7l-10.7-18.6L492.1,208.1z M462.8,200.2l10.7,18.6L455,229.5l-10.7-18.6
	L462.8,200.2z"/>
<path class="st0" d="M492.8,199.7l10.7,20l-20,10.7l-10.7-20L492.8,199.7z M462.1,190.3l10.7,20l-20,10.7l-10.7-20L462.1,190.3z"/>
<path class="st0" d="M492.8,191.5l10.5,21.4l-21.4,10.5l-10.5-21.4L492.8,191.5z M461,180.5l10.5,21.4L450,212.4L439.5,191
	L461,180.5z"/>
<path class="st0" d="M492.3,184l9.7,22.8l-22.8,9.7l-9.7-22.8L492.3,184z M459.9,170.9l9.7,22.8l-22.8,9.7l-9.7-22.8L459.9,170.9z"
	/>
<path class="st0" d="M490.7,176.4l9.1,23.6l-23.6,9.1l-9.1-23.6L490.7,176.4z M458,161.9l9.1,23.6l-23.6,9.1l-9.1-23.6L458,161.9z"
	/>
<path class="st0" d="M488.1,169.3l8.3,24l-24,8.3l-8.3-24L488.1,169.3z M455.8,153.5l8.3,24l-24,8.3l-8.3-24L455.8,153.5z"/>
<path class="st0" d="M484.5,162.5l7.3,24l-24,7.3l-7.3-24L484.5,162.5z M453.1,145.9l7.3,24l-24,7.3l-7.3-24L453.1,145.9z"/>
<path class="st0" d="M479.8,156.2l6.3,23.5l-23.5,6.3l-6.3-23.5L479.8,156.2z M450,139l6.3,23.5l-23.5,6.3l-6.3-23.5L450,139z"/>
<path class="st0" d="M474.1,150.3l5.2,22.7l-22.7,5.2l-5.2-22.7L474.1,150.3z M446.2,132.8l5.2,22.7l-22.7,5.2l-5.2-22.7
	L446.2,132.8z"/>
<path class="st0" d="M467.6,145.2l3.8,21.7l-21.7,3.8l-3.8-21.7L467.6,145.2z M442.1,127.3l3.8,21.7l-21.7,3.8l-3.8-21.7
	L442.1,127.3z"/>
<path class="st0" d="M460.3,140.3l2.9,20.5l-20.5,2.9l-2.9-20.5L460.3,140.3z M436.9,122.7l2.9,20.5l-20.5,2.9l-2.9-20.5
	L436.9,122.7z"/>
<path class="st0" d="M452.3,136l2,19.3l-19.3,2l-2-19.3L452.3,136z M431,118.7l2,19.3l-19.3,2l-2-19.3L431,118.7z"/>
<path class="st0" d="M443.9,132.2l1.3,18.1l-18.1,1.3l-1.3-18.1L443.9,132.2z M424.6,115.4l1.3,18.1l-18.1,1.3l-1.3-18.1
	L424.6,115.4z"/>
<path class="st0" d="M435.2,129l0.6,16.9l-16.9,0.6l-0.6-16.9L435.2,129z M417.7,112.7l0.6,16.9l-16.9,0.6l-0.6-16.9L417.7,112.7z"
	/>
<path class="st0" d="M426.2,126.7l-0.3,15.8l-15.8-0.3l0.3-15.8L426.2,126.7z M410.7,110.6l-0.3,15.8l-15.8-0.3l0.3-15.8
	L410.7,110.6z"/>
<path class="st0" d="M417.2,124.8l-0.8,15l-15-0.8l0.8-15L417.2,124.8z M403,109l-0.8,15l-15-0.8l0.8-15L403,109z"/>
<path class="st0" d="M408.4,123.6l-1.3,14.4l-14.4-1.3l1.3-14.4L408.4,123.6z M395.2,107.9l-1.3,14.4l-14.4-1.3l1.3-14.4
	L395.2,107.9z"/>
<path class="st0" d="M399.7,123.1l-1.7,14.2l-14.2-1.7l1.7-14.2L399.7,123.1z M387.2,107.2l-1.7,14.2l-14.2-1.7l1.7-14.2
	L387.2,107.2z"/>
<path class="st0" d="M391.3,123.4l-2.3,14.3l-14.3-2.3l2.3-14.3L391.3,123.4z M379.2,106.9l-2.3,14.3l-14.3-2.3l2.3-14.3
	L379.2,106.9z"/>
<path class="st0" d="M523.6,298.7c5.5-0.7,10.5,3.2,11.1,8.7c0.7,5.5-3.2,10.5-8.7,11.1c-5.5,0.7-10.5-3.2-11.1-8.7
	C514.2,304.4,518.1,299.4,523.6,298.7z M545,304.7c5.5-0.7,10.5,3.2,11.1,8.7s-3.2,10.5-8.7,11.1c-5.5,0.7-10.5-3.2-11.1-8.7
	C535.6,310.3,539.5,305.3,545,304.7z M555.9,324c5.5-0.7,10.5,3.2,11.1,8.7s-3.2,10.5-8.7,11.1s-10.5-3.2-11.1-8.7
	S550.4,324.7,555.9,324z M550,345.4c5.5-0.7,10.5,3.2,11.1,8.7s-3.2,10.5-8.7,11.1s-10.5-3.2-11.1-8.7S544.5,346.1,550,345.4z
	 M530.6,356.3c5.5-0.7,10.5,3.2,11.1,8.7s-3.2,10.5-8.7,11.1s-10.5-3.2-11.1-8.7S525.2,357,530.6,356.3z M509.3,350.4
	c5.5-0.7,10.5,3.2,11.1,8.7s-3.2,10.5-8.7,11.1c-5.5,0.7-10.5-3.2-11.1-8.7S503.8,351,509.3,350.4z M498.3,331.1
	c5.5-0.7,10.5,3.2,11.1,8.7s-3.2,10.5-8.7,11.1s-10.5-3.2-11.1-8.7S492.8,331.7,498.3,331.1z M504.3,309.7
	c5.5-0.7,10.5,3.2,11.1,8.7s-3.2,10.5-8.7,11.1c-5.5,0.7-10.5-3.2-11.1-8.7S498.8,310.3,504.3,309.7L504.3,309.7z"/>
<path class="st0" d="M533.4,291.6c5.5,0,10,4.5,10,10s-4.5,10-10,10s-10-4.5-10-10S527.9,291.6,533.4,291.6z M553.9,300.1
	c5.5,0,10,4.5,10,10s-4.5,10-10,10s-10-4.5-10-10S548.4,300.1,553.9,300.1L553.9,300.1z M562.4,320.6c5.5,0,10,4.5,10,10
	s-4.5,10-10,10s-10-4.5-10-10S556.9,320.6,562.4,320.6z M553.9,341.1c5.5,0,10,4.5,10,10s-4.5,10-10,10s-10-4.5-10-10
	S548.4,341.1,553.9,341.1z M533.4,349.6c5.5,0,10,4.5,10,10s-4.5,10-10,10s-10-4.5-10-10S527.9,349.6,533.4,349.6z M512.9,341.1
	c5.5,0,10,4.5,10,10s-4.5,10-10,10c-5.5,0-10-4.5-10-10S507.4,341.1,512.9,341.1z M504.4,320.6c5.5,0,10,4.5,10,10s-4.5,10-10,10
	s-10-4.5-10-10S498.9,320.6,504.4,320.6z M512.9,300.1c5.5,0,10,4.5,10,10s-4.5,10-10,10c-5.5,0-10-4.5-10-10
	S507.4,300.1,512.9,300.1L512.9,300.1z"/>
<path class="st0" d="M543.2,285.1c5.5,0.7,9.4,5.7,8.7,11.1c-0.7,5.5-5.7,9.4-11.1,8.7s-9.4-5.7-8.7-11.1
	C532.7,288.3,537.7,284.4,543.2,285.1z M562.5,296c5.5,0.7,9.4,5.7,8.7,11.1c-0.7,5.5-5.7,9.4-11.1,8.7s-9.4-5.7-8.7-11.1
	C552,299.2,557,295.3,562.5,296L562.5,296z M568.5,317.4c5.5,0.7,9.4,5.7,8.7,11.1c-0.7,5.5-5.7,9.4-11.1,8.7
	c-5.5-0.7-9.4-5.7-8.7-11.1C558,320.6,563,316.7,568.5,317.4z M557.5,336.7c5.5,0.7,9.4,5.7,8.7,11.1c-0.7,5.5-5.7,9.4-11.1,8.7
	c-5.5-0.7-9.4-5.7-8.7-11.1C547.1,339.9,552,336,557.5,336.7z M536.1,342.6c5.5,0.7,9.4,5.7,8.7,11.1c-0.7,5.5-5.7,9.4-11.1,8.7
	c-5.5-0.7-9.4-5.7-8.7-11.1C525.7,345.9,530.7,342,536.1,342.6z M516.8,331.7c5.5,0.7,9.4,5.7,8.7,11.1c-0.7,5.5-5.7,9.4-11.1,8.7
	c-5.5-0.7-9.4-5.7-8.7-11.1C506.3,334.9,511.3,331,516.8,331.7z M510.9,310.3c5.5,0.7,9.4,5.7,8.7,11.1c-0.7,5.5-5.7,9.4-11.1,8.7
	c-5.5-0.7-9.4-5.7-8.7-11.1C500.4,313.6,505.4,309.7,510.9,310.3z M521.8,291c5.5,0.7,9.4,5.7,8.7,11.1c-0.7,5.5-5.7,9.4-11.1,8.7
	s-9.4-5.7-8.7-11.1C511.3,294.2,516.3,290.3,521.8,291z"/>
<path class="st0" d="M553.6,279.3c5.3,1.4,8.5,6.9,7.1,12.2s-6.9,8.5-12.2,7.1s-8.5-6.9-7.1-12.2S548.3,277.9,553.6,279.3z
	 M571.2,292.8c5.3,1.4,8.5,6.9,7.1,12.2s-6.9,8.5-12.2,7.1s-8.5-6.9-7.1-12.2S565.9,291.4,571.2,292.8z M574.1,314.8
	c5.3,1.4,8.5,6.9,7.1,12.2s-6.9,8.5-12.2,7.1s-8.5-6.9-7.1-12.2S568.8,313.4,574.1,314.8L574.1,314.8z M560.6,332.4
	c5.3,1.4,8.5,6.9,7.1,12.2s-6.9,8.5-12.2,7.1s-8.5-6.9-7.1-12.2S555.3,331,560.6,332.4z M538.6,335.3c5.3,1.4,8.5,6.9,7.1,12.2
	s-6.9,8.5-12.2,7.1s-8.5-6.9-7.1-12.2S533.3,333.9,538.6,335.3z M521,321.8c5.3,1.4,8.5,6.9,7.1,12.2s-6.9,8.5-12.2,7.1
	c-5.3-1.4-8.5-6.9-7.1-12.2S515.6,320.4,521,321.8z M518.1,299.8c5.3,1.4,8.5,6.9,7.1,12.2s-6.9,8.5-12.2,7.1
	c-5.3-1.4-8.5-6.9-7.1-12.2S512.8,298.4,518.1,299.8z M531.6,282.2c5.3,1.4,8.5,6.9,7.1,12.2s-6.9,8.5-12.2,7.1s-8.5-6.9-7.1-12.2
	S526.3,280.8,531.6,282.2z"/>
<path class="st0" d="M563.2,274c5.1,2.1,7.6,7.9,5.5,13s-7.9,7.6-13,5.5c-5.1-2.1-7.6-7.9-5.5-13S558.1,271.9,563.2,274z M579,289.5
	c5.1,2.1,7.6,7.9,5.5,13s-7.9,7.6-13,5.5c-5.1-2.1-7.6-7.9-5.5-13S573.9,287.5,579,289.5z M579.2,311.7c5.1,2.1,7.6,7.9,5.5,13
	c-2.1,5.1-7.9,7.6-13,5.5c-5.1-2.1-7.6-7.9-5.5-13S574.1,309.7,579.2,311.7L579.2,311.7z M563.6,327.6c5.1,2.1,7.6,7.9,5.5,13
	c-2.1,5.1-7.9,7.6-13,5.5c-5.1-2.1-7.6-7.9-5.5-13C552.7,328,558.5,325.5,563.6,327.6z M541.5,327.7c5.1,2.1,7.6,7.9,5.5,13
	c-2.1,5.1-7.9,7.6-13,5.5c-5.1-2.1-7.6-7.9-5.5-13C530.5,328.2,536.3,325.7,541.5,327.7z M525.6,312.2c5.1,2.1,7.6,7.9,5.5,13
	c-2.1,5.1-7.9,7.6-13,5.5c-5.1-2.1-7.6-7.9-5.5-13C514.7,312.6,520.5,310.1,525.6,312.2L525.6,312.2z M525.4,290
	c5.1,2.1,7.6,7.9,5.5,13s-7.9,7.6-13,5.5c-5.1-2.1-7.6-7.9-5.5-13C514.5,290.4,520.3,287.9,525.4,290z M541,274.2
	c5.1,2.1,7.6,7.9,5.5,13s-7.9,7.6-13,5.5c-5.1-2.1-7.6-7.9-5.5-13S535.9,272.1,541,274.2z"/>
<path class="st0" d="M573.1,269.5c4.8,2.8,6.4,8.9,3.7,13.7s-8.9,6.4-13.7,3.7c-4.8-2.8-6.4-8.9-3.7-13.7S568.3,266.8,573.1,269.5z
	 M586.6,287.1c4.8,2.8,6.4,8.9,3.7,13.7s-8.9,6.4-13.7,3.7c-4.8-2.8-6.4-8.9-3.7-13.7S581.9,284.4,586.6,287.1z M583.7,309.1
	c4.8,2.8,6.4,8.9,3.7,13.7c-2.8,4.8-8.9,6.4-13.7,3.7s-6.4-8.9-3.7-13.7S579,306.4,583.7,309.1L583.7,309.1z M566.1,322.7
	c4.8,2.8,6.4,8.9,3.7,13.7s-8.9,6.4-13.7,3.7s-6.4-8.9-3.7-13.7S561.4,319.9,566.1,322.7z M544.1,319.8c4.8,2.8,6.4,8.9,3.7,13.7
	s-8.9,6.4-13.7,3.7s-6.4-8.9-3.7-13.7S539.3,317,544.1,319.8z M530.6,302.1c4.8,2.8,6.4,8.9,3.7,13.7c-2.8,4.8-8.9,6.4-13.7,3.7
	s-6.4-8.9-3.7-13.7S525.8,299.4,530.6,302.1L530.6,302.1z M533.5,280.1c4.8,2.8,6.4,8.9,3.7,13.7s-8.9,6.4-13.7,3.7
	c-4.8-2.8-6.4-8.9-3.7-13.7S528.7,277.4,533.5,280.1z M551.1,266.6c4.8,2.8,6.4,8.9,3.7,13.7s-8.9,6.4-13.7,3.7
	c-4.8-2.8-6.4-8.9-3.7-13.7S546.3,263.9,551.1,266.6z"/>
<path class="st0" d="M582.2,265.3c4.4,3.3,5.3,9.6,2,14c-3.3,4.4-9.6,5.3-14,2s-5.3-9.6-2-14C571.5,262.9,577.8,262,582.2,265.3z
	 M593.4,284.4c4.4,3.3,5.3,9.6,2,14c-3.3,4.4-9.6,5.3-14,2s-5.3-9.6-2-14C582.7,282,589,281.1,593.4,284.4z M587.9,305.9
	c4.4,3.3,5.3,9.6,2,14s-9.6,5.3-14,2s-5.3-9.6-2-14C577.2,303.5,583.5,302.6,587.9,305.9z M568.7,317.2c4.4,3.3,5.3,9.6,2,14
	s-9.6,5.3-14,2s-5.3-9.6-2-14C558.1,314.8,564.3,313.9,568.7,317.2z M547.3,311.6c4.4,3.3,5.3,9.6,2,14c-3.3,4.4-9.6,5.3-14,2
	s-5.3-9.6-2-14C536.6,309.2,542.8,308.3,547.3,311.6L547.3,311.6z M536,292.5c4.4,3.3,5.3,9.6,2,14c-3.3,4.4-9.6,5.3-14,2
	s-5.3-9.6-2-14C525.3,290.1,531.6,289.2,536,292.5z M541.5,271c4.4,3.3,5.3,9.6,2,14c-3.3,4.4-9.6,5.3-14,2s-5.3-9.6-2-14
	C530.9,268.6,537.1,267.7,541.5,271z M560.7,259.8c4.4,3.3,5.3,9.6,2,14c-3.3,4.4-9.6,5.3-14,2s-5.3-9.6-2-14
	C550,257.3,556.3,256.4,560.7,259.8z"/>
<path class="st0" d="M590.8,261.6c4,3.8,4.1,10.2,0.2,14.1s-10.2,4.1-14.1,0.2c-4-3.8-4.1-10.2-0.2-14.1S586.9,257.8,590.8,261.6z
	 M599.7,281.9c4,3.8,4.1,10.2,0.2,14.1s-10.2,4.1-14.1,0.2c-4-3.8-4.1-10.2-0.2-14.1S595.7,278.1,599.7,281.9z M591.6,302.6
	c4,3.8,4.1,10.2,0.2,14.1c-3.8,4-10.2,4.1-14.1,0.2c-4-3.8-4.1-10.2-0.2-14.1S587.6,298.8,591.6,302.6z M571.2,311.4
	c4,3.8,4.1,10.2,0.2,14.1s-10.2,4.1-14.1,0.2s-4.1-10.2-0.2-14.1S567.2,307.6,571.2,311.4L571.2,311.4z M550.6,303.3
	c4,3.8,4.1,10.2,0.2,14.1c-3.8,4-10.2,4.1-14.1,0.2c-4-3.8-4.1-10.2-0.2-14.1S546.6,299.5,550.6,303.3z M541.7,283
	c4,3.8,4.1,10.2,0.2,14.1s-10.2,4.1-14.1,0.2c-4-3.8-4.1-10.2-0.2-14.1S537.7,279.1,541.7,283z M549.8,262.3
	c4,3.8,4.1,10.2,0.2,14.1s-10.2,4.1-14.1,0.2c-4-3.8-4.1-10.2-0.2-14.1S545.9,258.5,549.8,262.3z M570.2,253.5
	c4,3.8,4.1,10.2,0.2,14.1s-10.2,4.1-14.1,0.2c-4-3.8-4.1-10.2-0.2-14.1C559.9,249.7,566.2,249.6,570.2,253.5z"/>
<path class="st0" d="M599.5,258.8c3.4,4.4,2.6,10.6-1.7,14s-10.6,2.6-14-1.7s-2.6-10.6,1.7-14C589.9,253.7,596.1,254.5,599.5,258.8z
	 M605.5,280.2c3.4,4.4,2.6,10.6-1.7,14s-10.6,2.6-14-1.7s-2.6-10.6,1.7-14S602.1,275.8,605.5,280.2z M594.5,299.5
	c3.4,4.4,2.6,10.6-1.7,14s-10.6,2.6-14-1.7s-2.6-10.6,1.7-14S591.1,295.2,594.5,299.5z M573.2,305.4c3.4,4.4,2.6,10.6-1.7,14
	s-10.6,2.6-14-1.7c-3.4-4.4-2.6-10.6,1.7-14S569.8,301.1,573.2,305.4z M553.8,294.5c3.4,4.4,2.6,10.6-1.7,14s-10.6,2.6-14-1.7
	s-2.6-10.6,1.7-14S550.4,290.2,553.8,294.5z M547.9,273.1c3.4,4.4,2.6,10.6-1.7,14s-10.6,2.6-14-1.7s-2.6-10.6,1.7-14
	S544.5,268.8,547.9,273.1z M558.8,253.8c3.4,4.4,2.6,10.6-1.7,14c-4.4,3.4-10.6,2.6-14-1.7s-2.6-10.6,1.7-14
	C549.2,248.7,555.4,249.5,558.8,253.8z M580.2,247.9c3.4,4.4,2.6,10.6-1.7,14c-4.4,3.4-10.6,2.6-14-1.7c-3.4-4.4-2.6-10.6,1.7-14
	C570.5,242.7,576.8,243.5,580.2,247.9z"/>
<path class="st0" d="M607.3,255.9c2.8,4.7,1.3,10.9-3.4,13.7c-4.7,2.8-10.9,1.3-13.7-3.4s-1.3-10.9,3.4-13.7
	C598.3,249.6,604.5,251.2,607.3,255.9z M610.6,277.8c2.8,4.7,1.3,10.9-3.4,13.7c-4.7,2.8-10.9,1.3-13.7-3.4s-1.3-10.9,3.4-13.7
	C601.6,271.6,607.7,273.1,610.6,277.8z M597.4,295.7c2.8,4.7,1.3,10.9-3.4,13.7c-4.7,2.8-10.9,1.3-13.7-3.4s-1.3-10.9,3.4-13.7
	C588.4,289.4,594.5,291,597.4,295.7z M575.4,299c2.8,4.7,1.3,10.9-3.4,13.7c-4.7,2.8-10.9,1.3-13.7-3.4s-1.3-10.9,3.4-13.7
	C566.4,292.7,572.6,294.2,575.4,299z M557.6,285.8c2.8,4.7,1.3,10.9-3.4,13.7c-4.7,2.8-10.9,1.3-13.7-3.4s-1.3-10.9,3.4-13.7
	C548.6,279.5,554.7,281,557.6,285.8z M554.3,263.8c2.8,4.7,1.3,10.9-3.4,13.7c-4.7,2.8-10.9,1.3-13.7-3.4s-1.3-10.9,3.4-13.7
	C545.3,257.6,551.5,259.1,554.3,263.8z M567.5,246c2.8,4.7,1.3,10.9-3.4,13.7c-4.7,2.8-10.9,1.3-13.7-3.4
	c-2.8-4.7-1.3-10.9,3.4-13.7C558.5,239.7,564.7,241.2,567.5,246z M589.5,242.7c2.8,4.7,1.3,10.9-3.4,13.7
	c-4.7,2.8-10.9,1.3-13.7-3.4c-2.8-4.7-1.3-10.9,3.4-13.7C580.5,236.4,586.6,238,589.5,242.7z"/>
<path class="st0" d="M614.8,253.9c2.2,5.1-0.2,11-5.3,13.1c-5.1,2.2-11-0.2-13.1-5.3s0.2-11,5.3-13.1S612.7,248.8,614.8,253.9z
	 M615,276.1c2.2,5.1-0.2,11-5.3,13.1c-5.1,2.2-11-0.2-13.1-5.3s0.2-11,5.3-13.1S612.9,271,615,276.1z M599.5,291.9
	c2.2,5.1-0.2,11-5.3,13.1s-11-0.2-13.1-5.3s0.2-11,5.3-13.1S597.3,286.9,599.5,291.9z M577.3,292.1c2.2,5.1-0.2,11-5.3,13.1
	s-11-0.2-13.1-5.3s0.2-11,5.3-13.1S575.1,287.1,577.3,292.1z M561.4,276.6c2.2,5.1-0.2,11-5.3,13.1s-11-0.2-13.1-5.3
	s0.2-11,5.3-13.1S559.3,271.5,561.4,276.6z M561.2,254.4c2.2,5.1-0.2,11-5.3,13.1s-11-0.2-13.1-5.3s0.2-11,5.3-13.1
	S559.1,249.3,561.2,254.4z M576.8,238.6c2.2,5.1-0.2,11-5.3,13.1s-11-0.2-13.1-5.3s0.2-11,5.3-13.1S574.6,233.5,576.8,238.6z
	 M599,238.4c2.2,5.1-0.2,11-5.3,13.1s-11-0.2-13.1-5.3s0.2-11,5.3-13.1S596.8,233.3,599,238.4z"/>
<path class="st0" d="M621.5,251.6c1.5,5.3-1.5,10.8-6.9,12.4c-5.3,1.5-10.8-1.5-12.4-6.9c-1.5-5.3,1.5-10.8,6.9-12.4
	S620,246.3,621.5,251.6z M619,273.6c1.5,5.3-1.5,10.8-6.9,12.4s-10.8-1.5-12.4-6.9c-1.5-5.3,1.5-10.8,6.9-12.4
	S617.4,268.3,619,273.6z M601.6,287.4c1.5,5.3-1.5,10.8-6.9,12.4s-10.8-1.5-12.4-6.9c-1.5-5.3,1.5-10.8,6.9-12.4
	S600.1,282.1,601.6,287.4z M579.5,284.9c1.5,5.3-1.5,10.8-6.9,12.4s-10.8-1.5-12.4-6.9c-1.5-5.3,1.5-10.8,6.9-12.4
	S578,279.6,579.5,284.9z M565.7,267.6c1.5,5.3-1.5,10.8-6.9,12.4s-10.8-1.5-12.4-6.9c-1.5-5.3,1.5-10.8,6.9-12.4
	S564.2,262.3,565.7,267.6z M568.2,245.5c1.5,5.3-1.5,10.8-6.9,12.4s-10.8-1.5-12.4-6.9c-1.5-5.3,1.5-10.8,6.9-12.4
	S566.7,240.2,568.2,245.5z M585.6,231.7c1.5,5.3-1.5,10.8-6.9,12.4s-10.8-1.5-12.4-6.9c-1.5-5.3,1.5-10.8,6.9-12.4
	S584.1,226.4,585.6,231.7z M607.7,234.2c1.5,5.3-1.5,10.8-6.9,12.4s-10.8-1.5-12.4-6.9c-1.5-5.3,1.5-10.8,6.9-12.4
	S606.1,228.9,607.7,234.2z"/>
<path class="st0" d="M627.6,249.4c0.9,5.5-2.9,10.6-8.3,11.4s-10.6-2.9-11.4-8.3c-0.9-5.5,2.9-10.6,8.3-11.4
	C621.6,240.2,626.7,243.9,627.6,249.4L627.6,249.4z M622.4,271c0.9,5.5-2.9,10.6-8.3,11.4c-5.5,0.9-10.6-2.9-11.4-8.3
	c-0.9-5.5,2.9-10.6,8.3-11.4S621.5,265.5,622.4,271z M603.5,282.6c0.9,5.5-2.9,10.6-8.3,11.4c-5.5,0.9-10.6-2.9-11.4-8.3
	c-0.9-5.5,2.9-10.6,8.3-11.4C597.5,273.4,602.6,277.1,603.5,282.6z M581.9,277.4c0.9,5.5-2.9,10.6-8.3,11.4
	c-5.5,0.9-10.6-2.9-11.4-8.3c-0.9-5.5,2.9-10.6,8.3-11.4C575.9,268.2,581,271.9,581.9,277.4z M570.3,258.5
	c0.9,5.5-2.9,10.6-8.3,11.4c-5.5,0.9-10.6-2.9-11.4-8.3c-0.9-5.5,2.9-10.6,8.3-11.4C564.3,249.3,569.4,253,570.3,258.5z
	 M575.5,236.9c0.9,5.5-2.9,10.6-8.3,11.4c-5.5,0.9-10.6-2.9-11.4-8.3c-0.9-5.5,2.9-10.6,8.3-11.4
	C569.5,227.7,574.6,231.4,575.5,236.9z M594.4,225.3c0.9,5.5-2.9,10.6-8.3,11.4c-5.5,0.9-10.6-2.9-11.4-8.3
	c-0.9-5.5,2.9-10.6,8.3-11.4C588.4,216.1,593.5,219.8,594.4,225.3z M616,230.5c0.9,5.5-2.9,10.6-8.3,11.4
	c-5.5,0.9-10.6-2.9-11.4-8.3c-0.9-5.5,2.9-10.6,8.3-11.4C610,221.3,615.1,225,616,230.5z"/>
<path class="st0" d="M633.1,248c0.1,5.5-4.3,10.1-9.8,10.2s-10.1-4.3-10.2-9.8s4.3-10.1,9.8-10.2S633,242.5,633.1,248z M625,268.6
	c0.1,5.5-4.3,10.1-9.8,10.2c-5.5,0.1-10.1-4.3-10.2-9.8s4.3-10.1,9.8-10.2C620.3,258.7,624.9,263.1,625,268.6z M604.6,277.5
	c0.1,5.5-4.3,10.1-9.8,10.2s-10.1-4.3-10.2-9.8s4.3-10.1,9.8-10.2S604.5,272,604.6,277.5z M584,269.4c0.1,5.5-4.3,10.1-9.8,10.2
	s-10.1-4.3-10.2-9.8s4.3-10.1,9.8-10.2S583.9,263.8,584,269.4z M575.1,249c0.1,5.5-4.3,10.1-9.8,10.2s-10.1-4.3-10.2-9.8
	s4.3-10.1,9.8-10.2S575,243.5,575.1,249z M583.3,228.3c0.1,5.5-4.3,10.1-9.8,10.2s-10.1-4.3-10.2-9.8s4.3-10.1,9.8-10.2
	S583.2,222.8,583.3,228.3z M603.6,219.5c0.1,5.5-4.3,10.1-9.8,10.2s-10.1-4.3-10.2-9.8s4.3-10.1,9.8-10.2S603.5,214,603.6,219.5z
	 M624.3,227.6c0.1,5.5-4.3,10.1-9.8,10.2c-5.5,0.1-10.1-4.3-10.2-9.8s4.3-10.1,9.8-10.2C619.6,217.7,624.2,222.1,624.3,227.6z"/>
<path class="st0" d="M638,245.9c-0.6,5.5-5.5,9.5-11,8.9s-9.5-5.5-8.9-11s5.5-9.5,11-8.9S638.5,240.4,638,245.9z M627.4,265.4
	c-0.6,5.5-5.5,9.5-11,8.9c-5.5-0.6-9.5-5.5-8.9-11c0.6-5.5,5.5-9.5,11-8.9S627.9,259.9,627.4,265.4z M606.1,271.7
	c-0.6,5.5-5.5,9.5-11,8.9c-5.5-0.6-9.5-5.5-8.9-11c0.6-5.5,5.5-9.5,11-8.9C602.7,261.3,606.7,266.2,606.1,271.7z M586.6,261.1
	c-0.6,5.5-5.5,9.5-11,8.9c-5.5-0.6-9.5-5.5-8.9-11c0.6-5.5,5.5-9.5,11-8.9C583.2,250.7,587.2,255.6,586.6,261.1z M580.3,239.9
	c-0.6,5.5-5.5,9.5-11,8.9c-5.5-0.6-9.5-5.5-8.9-11c0.6-5.5,5.5-9.5,11-8.9C576.9,229.4,580.9,234.4,580.3,239.9z M590.9,220.3
	c-0.6,5.5-5.5,9.5-11,8.9c-5.5-0.6-9.5-5.5-8.9-11c0.6-5.5,5.5-9.5,11-8.9C587.5,209.9,591.4,214.9,590.9,220.3z M612.2,214
	c-0.6,5.5-5.5,9.5-11,8.9c-5.5-0.6-9.5-5.5-8.9-11c0.6-5.5,5.5-9.5,11-8.9C608.7,203.6,612.7,208.5,612.2,214z M631.7,224.6
	c-0.6,5.5-5.5,9.5-11,8.9s-9.5-5.5-8.9-11c0.6-5.5,5.5-9.5,11-8.9S632.2,219.1,631.7,224.6z"/>
<path class="st0" d="M642.1,244.4c-1.3,5.4-6.8,8.6-12.1,7.3s-8.6-6.8-7.3-12.1c1.3-5.4,6.8-8.6,12.1-7.3S643.4,239.1,642.1,244.4z
	 M628.9,262.3c-1.3,5.4-6.8,8.6-12.1,7.3c-5.4-1.3-8.6-6.8-7.3-12.1c1.3-5.4,6.8-8.6,12.1-7.3S630.2,256.9,628.9,262.3L628.9,262.3z
	 M606.9,265.6c-1.3,5.4-6.8,8.6-12.1,7.3s-8.6-6.8-7.3-12.1c1.3-5.4,6.8-8.6,12.1-7.3S608.3,260.2,606.9,265.6z M589.1,252.4
	c-1.3,5.4-6.8,8.6-12.1,7.3s-8.6-6.8-7.3-12.1c1.3-5.4,6.8-8.6,12.1-7.3S590.4,247,589.1,252.4z M585.8,230.4
	c-1.3,5.4-6.8,8.6-12.1,7.3s-8.6-6.8-7.3-12.1c1.3-5.4,6.8-8.6,12.1-7.3S587.1,225.1,585.8,230.4z M599,212.6
	c-1.3,5.4-6.8,8.6-12.1,7.3s-8.6-6.8-7.3-12.1c1.3-5.4,6.8-8.6,12.1-7.3S600.3,207.2,599,212.6z M621,209.3
	c-1.3,5.4-6.8,8.6-12.1,7.3s-8.6-6.8-7.3-12.1c1.3-5.4,6.8-8.6,12.1-7.3S622.3,203.9,621,209.3z M638.8,222.5
	c-1.3,5.4-6.8,8.6-12.1,7.3s-8.6-6.8-7.3-12.1c1.3-5.4,6.8-8.6,12.1-7.3S640.1,217.1,638.8,222.5z"/>
<path class="st0" d="M645.7,242.2c-2,5.2-7.8,7.7-12.9,5.8c-5.2-2-7.7-7.8-5.8-12.9c2-5.2,7.8-7.7,12.9-5.8
	C645.1,231.2,647.7,237,645.7,242.2z M630.4,258.3c-2,5.2-7.8,7.7-12.9,5.8c-5.2-2-7.7-7.8-5.8-12.9c2-5.2,7.8-7.7,12.9-5.8
	C629.8,247.3,632.4,253.1,630.4,258.3z M608.2,258.8c-2,5.2-7.8,7.7-12.9,5.8c-5.2-2-7.7-7.8-5.8-12.9c2-5.2,7.8-7.7,12.9-5.8
	C607.6,247.9,610.2,253.7,608.2,258.8z M592.1,243.6c-2,5.2-7.8,7.7-12.9,5.8c-5.2-2-7.7-7.8-5.8-12.9c2-5.2,7.8-7.7,12.9-5.8
	C591.5,232.6,594.1,238.4,592.1,243.6z M591.6,221.4c-2,5.2-7.8,7.7-12.9,5.8c-5.2-2-7.7-7.8-5.8-12.9c2-5.2,7.8-7.7,12.9-5.8
	C591,210.4,593.5,216.2,591.6,221.4z M606.8,205.3c-2,5.2-7.8,7.7-12.9,5.8c-5.2-2-7.7-7.8-5.8-12.9c2-5.2,7.8-7.7,12.9-5.8
	C606.2,194.3,608.8,200.1,606.8,205.3z M629,204.7c-2,5.2-7.8,7.7-12.9,5.8c-5.2-2-7.7-7.8-5.8-12.9c2-5.2,7.8-7.7,12.9-5.8
	C628.4,193.7,631,199.5,629,204.7z M645.1,220c-2,5.2-7.8,7.7-12.9,5.8c-5.2-2-7.7-7.8-5.8-12.9c2-5.2,7.8-7.7,12.9-5.8
	C644.5,209,647.1,214.8,645.1,220z"/>
<path class="st0" d="M648.5,240.3c-2.7,4.8-8.8,6.6-13.6,3.9c-4.8-2.7-6.6-8.8-3.9-13.6c2.7-4.8,8.8-6.6,13.6-3.9
	C649.4,229.3,651.1,235.4,648.5,240.3z M631.1,254.1c-2.7,4.8-8.8,6.6-13.6,3.9c-4.8-2.7-6.6-8.8-3.9-13.6c2.7-4.8,8.8-6.6,13.6-3.9
	C632,243.2,633.8,249.2,631.1,254.1z M609,251.6c-2.7,4.8-8.8,6.6-13.6,3.9c-4.8-2.7-6.6-8.8-3.9-13.6c2.7-4.8,8.8-6.6,13.6-3.9
	S611.7,246.7,609,251.6z M595.2,234.2c-2.7,4.8-8.8,6.6-13.6,3.9s-6.6-8.8-3.9-13.6c2.7-4.8,8.8-6.6,13.6-3.9
	S597.9,229.4,595.2,234.2z M597.7,212.1c-2.7,4.8-8.8,6.6-13.6,3.9s-6.6-8.8-3.9-13.6c2.7-4.8,8.8-6.6,13.6-3.9
	S600.4,207.3,597.7,212.1z M615.1,198.3c-2.7,4.8-8.8,6.6-13.6,3.9s-6.6-8.8-3.9-13.6c2.7-4.8,8.8-6.6,13.6-3.9
	C616,187.4,617.8,193.5,615.1,198.3z M637.2,200.8c-2.7,4.8-8.8,6.6-13.6,3.9c-4.8-2.7-6.6-8.8-3.9-13.6c2.7-4.8,8.8-6.6,13.6-3.9
	C638.1,189.9,639.8,196,637.2,200.8z M651,218.2c-2.7,4.8-8.8,6.6-13.6,3.9c-4.8-2.7-6.6-8.8-3.9-13.6c2.7-4.8,8.8-6.6,13.6-3.9
	C651.9,207.3,653.7,213.4,651,218.2z"/>
<path class="st0" d="M651,237.4c-3.2,4.5-9.5,5.5-14,2.2c-4.5-3.2-5.5-9.5-2.2-14c3.2-4.5,9.5-5.5,14-2.2
	C653.2,226.7,654.2,233,651,237.4z M632,249c-3.2,4.5-9.5,5.5-14,2.2c-4.5-3.2-5.5-9.5-2.2-14c3.2-4.5,9.5-5.5,14-2.2
	C634.3,238.3,635.3,244.6,632,249z M610.5,243.9c-3.2,4.5-9.5,5.5-14,2.2s-5.5-9.5-2.2-14c3.2-4.5,9.5-5.5,14-2.2
	S613.7,239.4,610.5,243.9z M598.9,224.9c-3.2,4.5-9.5,5.5-14,2.2s-5.5-9.5-2.2-14c3.2-4.5,9.5-5.5,14-2.2S602.1,220.5,598.9,224.9z
	 M604,203.4c-3.2,4.5-9.5,5.5-14,2.2s-5.5-9.5-2.2-14c3.2-4.5,9.5-5.5,14-2.2S607.3,198.9,604,203.4z M623,191.8
	c-3.2,4.5-9.5,5.5-14,2.2s-5.5-9.5-2.2-14c3.2-4.5,9.5-5.5,14-2.2S626.2,187.3,623,191.8z M644.6,196.9c-3.2,4.5-9.5,5.5-14,2.2
	c-4.5-3.2-5.5-9.5-2.2-14c3.2-4.5,9.5-5.5,14-2.2C646.8,186.2,647.8,192.5,644.6,196.9z M656.2,215.9c-3.2,4.5-9.5,5.5-14,2.2
	c-4.5-3.2-5.5-9.5-2.2-14c3.2-4.5,9.5-5.5,14-2.2C658.4,205.1,659.4,211.4,656.2,215.9z"/>
<path class="st0" d="M653,234.3c-3.8,4-10.1,4.3-14.1,0.5s-4.3-10.1-0.5-14.1s10.1-4.3,14.1-0.5S656.8,230.2,653,234.3z
	 M632.8,243.5c-3.8,4-10.1,4.3-14.1,0.5s-4.3-10.1-0.5-14.1s10.1-4.3,14.1-0.5S636.6,239.5,632.8,243.5z M612,235.7
	c-3.8,4-10.1,4.3-14.1,0.5c-4-3.8-4.3-10.1-0.5-14.1c3.8-4,10.1-4.3,14.1-0.5C615.6,225.4,615.8,231.7,612,235.7z M602.8,215.5
	c-3.8,4-10.1,4.3-14.1,0.5c-4-3.8-4.3-10.1-0.5-14.1c3.8-4,10.1-4.3,14.1-0.5C606.4,205.2,606.6,211.5,602.8,215.5z M610.6,194.7
	c-3.8,4-10.1,4.3-14.1,0.5c-4-3.8-4.3-10.1-0.5-14.1c3.8-4,10.1-4.3,14.1-0.5C614.1,184.4,614.3,190.7,610.6,194.7z M630.8,185.5
	c-3.8,4-10.1,4.3-14.1,0.5c-4-3.8-4.3-10.1-0.5-14.1s10.1-4.3,14.1-0.5S634.5,181.5,630.8,185.5z M651.6,193.3
	c-3.8,4-10.1,4.3-14.1,0.5s-4.3-10.1-0.5-14.1s10.1-4.3,14.1-0.5S655.3,189.3,651.6,193.3z M660.8,213.5c-3.8,4-10.1,4.3-14.1,0.5
	s-4.3-10.1-0.5-14.1s10.1-4.3,14.1-0.5S664.5,209.5,660.8,213.5z"/>
<path class="st0" d="M654.1,231.2c-4.3,3.5-10.6,2.8-14.1-1.5c-3.5-4.3-2.8-10.6,1.5-14.1s10.6-2.8,14.1,1.5
	C659,221.4,658.4,227.7,654.1,231.2z M632.8,237.5c-4.3,3.5-10.6,2.8-14.1-1.5c-3.5-4.3-2.8-10.6,1.5-14.1s10.6-2.8,14.1,1.5
	C637.8,227.7,637.1,234,632.8,237.5z M613.3,226.9c-4.3,3.5-10.6,2.8-14.1-1.5c-3.5-4.3-2.8-10.6,1.5-14.1s10.6-2.8,14.1,1.5
	C618.2,217.1,617.6,223.4,613.3,226.9L613.3,226.9z M607,205.6c-4.3,3.5-10.6,2.8-14.1-1.5c-3.5-4.3-2.8-10.6,1.5-14.1
	s10.6-2.8,14.1,1.5C611.9,195.8,611.3,202.1,607,205.6z M617.6,186.1c-4.3,3.5-10.6,2.8-14.1-1.5c-3.5-4.3-2.8-10.6,1.5-14.1
	s10.6-2.8,14.1,1.5C622.5,176.3,621.9,182.6,617.6,186.1z M638.9,179.8c-4.3,3.5-10.6,2.8-14.1-1.5c-3.5-4.3-2.8-10.6,1.5-14.1
	s10.6-2.8,14.1,1.5C643.8,170,643.2,176.3,638.9,179.8z M658.4,190.4c-4.3,3.5-10.6,2.8-14.1-1.5c-3.5-4.3-2.8-10.6,1.5-14.1
	s10.6-2.8,14.1,1.5C663.3,180.6,662.7,186.9,658.4,190.4z M664.7,211.7c-4.3,3.5-10.6,2.8-14.1-1.5c-3.5-4.3-2.8-10.6,1.5-14.1
	s10.6-2.8,14.1,1.5C669.6,201.9,669,208.2,664.7,211.7z"/>
<path class="st0" d="M655.3,227.1c-4.7,2.9-10.9,1.5-13.8-3.2s-1.5-10.9,3.2-13.8s10.9-1.5,13.8,3.2S659.9,224.2,655.3,227.1z
	 M633.4,230.8c-4.7,2.9-10.9,1.5-13.8-3.2s-1.5-10.9,3.2-13.8s10.9-1.5,13.8,3.2S638.1,227.8,633.4,230.8z M615.3,217.9
	c-4.7,2.9-10.9,1.5-13.8-3.2s-1.5-10.9,3.2-13.8s10.9-1.5,13.8,3.2S620,215,615.3,217.9z M611.6,196c-4.7,2.9-10.9,1.5-13.8-3.2
	S596.4,182,601,179s10.9-1.5,13.8,3.2S616.3,193.1,611.6,196z M624.5,177.9c-4.7,2.9-10.9,1.5-13.8-3.2s-1.5-10.9,3.2-13.8
	c4.7-2.9,10.9-1.5,13.8,3.2S629.2,175,624.5,177.9z M646.4,174.3c-4.7,2.9-10.9,1.5-13.8-3.2s-1.5-10.9,3.2-13.8s10.9-1.5,13.8,3.2
	S651.1,171.3,646.4,174.3z M664.5,187.1c-4.7,2.9-10.9,1.5-13.8-3.2s-1.5-10.9,3.2-13.8s10.9-1.5,13.8,3.2S669.2,184.2,664.5,187.1z
	 M668.2,209c-4.7,2.9-10.9,1.5-13.8-3.2s-1.5-10.9,3.2-13.8s10.9-1.5,13.8,3.2S672.8,206.1,668.2,209z"/>
<path class="st0" d="M655.5,222.8c-5,2.2-11,0-13.2-5.1s0-11,5.1-13.2s11,0,13.2,5.1C662.8,214.7,660.6,220.6,655.5,222.8
	L655.5,222.8z M633.3,223.4c-5,2.2-11,0-13.2-5.1s0-11,5.1-13.2s11,0,13.2,5.1C640.6,215.3,638.4,221.2,633.3,223.4L633.3,223.4z
	 M617.2,208.1c-5,2.2-11,0-13.2-5.1s0-11,5.1-13.2c5-2.2,11,0,13.2,5.1S622.3,205.9,617.2,208.1z M616.7,185.9c-5,2.2-11,0-13.2-5.1
	s0-11,5.1-13.2c5-2.2,11,0,13.2,5.1S621.7,183.7,616.7,185.9z M631.9,169.8c-5,2.2-11,0-13.2-5.1c-2.2-5,0-11,5.1-13.2
	s11,0,13.2,5.1C639.2,161.7,637,167.6,631.9,169.8z M654.1,169.3c-5,2.2-11,0-13.2-5.1c-2.2-5,0-11,5.1-13.2s11,0,13.2,5.1
	C661.4,161.1,659.2,167,654.1,169.3z M670.2,184.5c-5,2.2-11,0-13.2-5.1s0-11,5.1-13.2s11,0,13.2,5.1
	C677.5,176.4,675.3,182.3,670.2,184.5L670.2,184.5z M670.8,206.7c-5,2.2-11,0-13.2-5.1c-2.2-5,0-11,5.1-13.2s11,0,13.2,5.1
	C678.1,198.6,675.8,204.5,670.8,206.7z"/>
<path class="st0" d="M656.1,217.7c-5.3,1.6-10.9-1.4-12.5-6.6s1.4-10.9,6.6-12.5s10.9,1.4,12.5,6.6S661.4,216.1,656.1,217.7z
	 M634,215.5c-5.3,1.6-10.9-1.4-12.5-6.6s1.4-10.9,6.6-12.5s10.9,1.4,12.5,6.6S639.3,213.9,634,215.5z M619.9,198.4
	c-5.3,1.6-10.9-1.4-12.5-6.6c-1.6-5.3,1.4-10.9,6.6-12.5c5.3-1.6,10.9,1.4,12.5,6.6S625.2,196.8,619.9,198.4L619.9,198.4z
	 M622,176.3c-5.3,1.6-10.9-1.4-12.5-6.6c-1.6-5.3,1.4-10.9,6.6-12.5c5.3-1.6,10.9,1.4,12.5,6.6S627.3,174.7,622,176.3L622,176.3z
	 M639.2,162.2c-5.3,1.6-10.9-1.4-12.5-6.6s1.4-10.9,6.6-12.5s10.9,1.4,12.5,6.6S644.4,160.6,639.2,162.2z M661.3,164.3
	c-5.3,1.6-10.9-1.4-12.5-6.6s1.4-10.9,6.6-12.5s10.9,1.4,12.5,6.6S666.5,162.7,661.3,164.3z M675.4,181.5
	c-5.3,1.6-10.9-1.4-12.5-6.6s1.4-10.9,6.6-12.5s10.9,1.4,12.5,6.6S680.7,179.8,675.4,181.5z M673.2,203.5
	c-5.3,1.6-10.9-1.4-12.5-6.6s1.4-10.9,6.6-12.5s10.9,1.4,12.5,6.6S678.5,201.9,673.2,203.5z"/>
<path class="st0" d="M656.6,211.9c-5.4,1-10.6-2.7-11.6-8.1c-1-5.4,2.7-10.6,8.1-11.6c5.4-1,10.6,2.7,11.6,8.1
	C665.6,205.8,662,211,656.6,211.9z M634.9,207.1c-5.4,1-10.6-2.7-11.6-8.1c-1-5.4,2.7-10.6,8.1-11.6c5.4-1,10.6,2.7,11.6,8.1
	C644,201,640.3,206.2,634.9,207.1z M623,188.4c-5.4,1-10.6-2.7-11.6-8.1c-1-5.4,2.7-10.6,8.1-11.6c5.4-1,10.6,2.7,11.6,8.1
	C632,182.3,628.4,187.5,623,188.4L623,188.4z M627.8,166.8c-5.4,1-10.6-2.7-11.6-8.1c-1-5.4,2.7-10.6,8.1-11.6
	c5.4-1,10.6,2.7,11.6,8.1C636.8,160.6,633.2,165.8,627.8,166.8z M646.5,154.8c-5.4,1-10.6-2.7-11.6-8.1c-1-5.4,2.7-10.6,8.1-11.6
	c5.4-1,10.6,2.7,11.6,8.1C655.6,148.7,651.9,153.9,646.5,154.8z M668.2,159.6c-5.4,1-10.6-2.7-11.6-8.1c-1-5.4,2.7-10.6,8.1-11.6
	c5.4-1,10.6,2.7,11.6,8.1C677.2,153.5,673.6,158.7,668.2,159.6z M680.1,178.4c-5.4,1-10.6-2.7-11.6-8.1c-1-5.4,2.7-10.6,8.1-11.6
	c5.4-1,10.6,2.7,11.6,8.1C689.1,172.2,685.5,177.4,680.1,178.4z M675.3,200c-5.4,1-10.6-2.7-11.6-8.1c-1-5.4,2.7-10.6,8.1-11.6
	c5.4-1,10.6,2.7,11.6,8.1C684.3,193.9,680.7,199.1,675.3,200z"/>
<path class="st0" d="M656.2,205.7c-5.5,0.2-10.2-4.1-10.3-9.6s4.1-10.2,9.6-10.3c5.5-0.2,10.2,4.1,10.3,9.6S661.7,205.5,656.2,205.7
	z M635.4,197.9c-5.5,0.2-10.2-4.1-10.3-9.6s4.1-10.2,9.6-10.3c5.5-0.2,10.2,4.1,10.3,9.6S640.9,197.7,635.4,197.9z M626.2,177.7
	c-5.5,0.2-10.2-4.1-10.3-9.6s4.1-10.2,9.6-10.3c5.5-0.2,10.2,4.1,10.3,9.6S631.7,177.5,626.2,177.7z M634,156.9
	c-5.5,0.2-10.2-4.1-10.3-9.6s4.1-10.2,9.6-10.3c5.5-0.2,10.2,4.1,10.3,9.6S639.5,156.7,634,156.9z M654.2,147.7
	c-5.5,0.2-10.2-4.1-10.3-9.6s4.1-10.2,9.6-10.3c5.5-0.2,10.2,4.1,10.3,9.6S659.7,147.5,654.2,147.7z M675,155.5
	c-5.5,0.2-10.2-4.1-10.3-9.6s4.1-10.2,9.6-10.3c5.5-0.2,10.2,4.1,10.3,9.6S680.5,155.3,675,155.5z M684.2,175.7
	c-5.5,0.2-10.2-4.1-10.3-9.6s4.1-10.2,9.6-10.3c5.5-0.2,10.2,4.1,10.3,9.6S689.7,175.5,684.2,175.7z M676.4,196.5
	c-5.5,0.2-10.2-4.1-10.3-9.6s4.1-10.2,9.6-10.3c5.5-0.2,10.2,4.1,10.3,9.6S681.9,196.3,676.4,196.5z"/>
<path class="st0" d="M656.5,198.7c-5.5-0.5-9.6-5.3-9.1-10.8c0.5-5.5,5.3-9.6,10.8-9.1s9.6,5.3,9.1,10.8
	C666.9,195.1,662,199.2,656.5,198.7z M636.8,188.5c-5.5-0.5-9.6-5.3-9.1-10.8c0.5-5.5,5.3-9.6,10.8-9.1s9.6,5.3,9.1,10.8
	C647.2,184.9,642.3,189,636.8,188.5z M630.1,167.3c-5.5-0.5-9.6-5.3-9.1-10.8c0.5-5.5,5.3-9.6,10.8-9.1s9.6,5.3,9.1,10.8
	C640.5,163.7,635.6,167.8,630.1,167.3z M640.4,147.6c-5.5-0.5-9.6-5.3-9.1-10.8c0.5-5.5,5.3-9.6,10.8-9.1s9.6,5.3,9.1,10.8
	C650.7,144,645.9,148.1,640.4,147.6z M661.6,141c-5.5-0.5-9.6-5.3-9.1-10.8c0.5-5.5,5.3-9.6,10.8-9.1s9.6,5.3,9.1,10.8
	C671.9,137.4,667.1,141.4,661.6,141z M681.2,151.2c-5.5-0.5-9.6-5.3-9.1-10.8c0.5-5.5,5.3-9.6,10.8-9.1s9.6,5.3,9.1,10.8
	C691.6,147.6,686.7,151.7,681.2,151.2z M687.9,172.4c-5.5-0.5-9.6-5.3-9.1-10.8c0.5-5.5,5.3-9.6,10.8-9.1s9.6,5.3,9.1,10.8
	C698.3,168.8,693.4,172.9,687.9,172.4z M677.7,192.1c-5.5-0.5-9.6-5.3-9.1-10.8c0.5-5.5,5.3-9.6,10.8-9.1s9.6,5.3,9.1,10.8
	C688,188.5,683.2,192.5,677.7,192.1z"/>
<path class="st0" d="M656.2,191.1c-5.4-1.2-8.7-6.6-7.5-12c1.2-5.4,6.6-8.7,12-7.5c5.4,1.2,8.7,6.6,7.5,12
	C666.9,188.9,661.6,192.3,656.2,191.1z M638.1,178.2c-5.4-1.2-8.7-6.6-7.5-12c1.2-5.4,6.6-8.7,12-7.5c5.4,1.2,8.7,6.6,7.5,12
	C648.9,176.1,643.5,179.4,638.1,178.2L638.1,178.2z M634.5,156.3c-5.4-1.2-8.7-6.6-7.5-12c1.2-5.4,6.6-8.7,12-7.5
	c5.4,1.2,8.7,6.6,7.5,12C645.2,154.2,639.8,157.5,634.5,156.3L634.5,156.3z M647.3,138.2c-5.4-1.2-8.7-6.6-7.5-12
	c1.2-5.4,6.6-8.7,12-7.5c5.4,1.2,8.7,6.6,7.5,12C658.1,136.1,652.7,139.4,647.3,138.2L647.3,138.2z M669.2,134.5
	c-5.4-1.2-8.7-6.6-7.5-12c1.2-5.4,6.6-8.7,12-7.5c5.4,1.2,8.7,6.6,7.5,12C680,132.4,674.6,135.8,669.2,134.5L669.2,134.5z
	 M687.3,147.4c-5.4-1.2-8.7-6.6-7.5-12c1.2-5.4,6.6-8.7,12-7.5c5.4,1.2,8.7,6.6,7.5,12C698.1,145.3,692.7,148.7,687.3,147.4z
	 M691,169.3c-5.4-1.2-8.7-6.6-7.5-12c1.2-5.4,6.6-8.7,12-7.5c5.4,1.2,8.7,6.6,7.5,12C701.7,167.2,696.3,170.6,691,169.3z
	 M678.1,187.4c-5.4-1.2-8.7-6.6-7.5-12c1.2-5.4,6.6-8.7,12-7.5c5.4,1.2,8.7,6.6,7.5,12C688.8,185.3,683.5,188.6,678.1,187.4z"/>
<path class="st0" d="M656.7,182.9c-5.2-1.9-7.9-7.6-6-12.8s7.6-7.9,12.8-6c5.2,1.9,7.9,7.6,6,12.8S661.9,184.8,656.7,182.9z
	 M640.3,167.9c-5.2-1.9-7.9-7.6-6-12.8s7.6-7.9,12.8-6c5.2,1.9,7.9,7.6,6,12.8S645.5,169.8,640.3,167.9z M639.4,145.7
	c-5.2-1.9-7.9-7.6-6-12.8s7.6-7.9,12.8-6c5.2,1.9,7.9,7.6,6,12.8S644.5,147.6,639.4,145.7z M654.3,129.3c-5.2-1.9-7.9-7.6-6-12.8
	s7.6-7.9,12.8-6c5.2,1.9,7.9,7.6,6,12.8S659.5,131.2,654.3,129.3z M676.5,128.4c-5.2-1.9-7.9-7.6-6-12.8s7.6-7.9,12.8-6
	c5.2,1.9,7.9,7.6,6,12.8S681.7,130.3,676.5,128.4z M692.9,143.4c-5.2-1.9-7.9-7.6-6-12.8s7.6-7.9,12.8-6c5.2,1.9,7.9,7.6,6,12.8
	S698.1,145.3,692.9,143.4z M693.9,165.5c-5.2-1.9-7.9-7.6-6-12.8s7.6-7.9,12.8-6c5.2,1.9,7.9,7.6,6,12.8S699,167.4,693.9,165.5z
	 M678.9,181.9c-5.2-1.9-7.9-7.6-6-12.8s7.6-7.9,12.8-6c5.2,1.9,7.9,7.6,6,12.8S684,183.8,678.9,181.9z"/>
<path class="st0" d="M657.4,174.1c-4.9-2.5-6.9-8.5-4.4-13.4s8.5-6.9,13.4-4.4s6.9,8.5,4.4,13.4S662.3,176.7,657.4,174.1z
	 M643,157.3c-4.9-2.5-6.9-8.5-4.4-13.4s8.5-6.9,13.4-4.4s6.9,8.5,4.4,13.4S647.9,159.8,643,157.3z M644.7,135.1
	c-4.9-2.5-6.9-8.5-4.4-13.4s8.5-6.9,13.4-4.4s6.9,8.5,4.4,13.4S649.6,137.6,644.7,135.1z M661.6,120.7c-4.9-2.5-6.9-8.5-4.4-13.4
	s8.5-6.9,13.4-4.4s6.9,8.5,4.4,13.4S666.5,123.2,661.6,120.7z M683.7,122.5c-4.9-2.5-6.9-8.5-4.4-13.4s8.5-6.9,13.4-4.4
	s6.9,8.5,4.4,13.4S688.6,125,683.7,122.5z M698.1,139.3c-4.9-2.5-6.9-8.5-4.4-13.4s8.5-6.9,13.4-4.4s6.9,8.5,4.4,13.4
	S703,141.9,698.1,139.3z M696.4,161.5c-4.9-2.5-6.9-8.5-4.4-13.4s8.5-6.9,13.4-4.4s6.9,8.5,4.4,13.4S701.3,164,696.4,161.5z
	 M679.5,175.9c-4.9-2.5-6.9-8.5-4.4-13.4s8.5-6.9,13.4-4.4s6.9,8.5,4.4,13.4S684.4,178.4,679.5,175.9z"/>
<path class="st0" d="M657.8,164.5c-4.5-3.2-5.6-9.4-2.5-13.9s9.4-5.6,13.9-2.5s5.6,9.4,2.5,13.9S662.3,167.7,657.8,164.5z
	 M645.8,145.8c-4.5-3.2-5.6-9.4-2.5-13.9s9.4-5.6,13.9-2.5s5.6,9.4,2.5,13.9S650.4,149,645.8,145.8z M650.7,124.1
	c-4.5-3.2-5.6-9.4-2.5-13.9s9.4-5.6,13.9-2.5s5.6,9.4,2.5,13.9S655.2,127.3,650.7,124.1z M669.4,112.2c-4.5-3.2-5.6-9.4-2.5-13.9
	s9.4-5.6,13.9-2.5s5.6,9.4,2.5,13.9S673.9,115.4,669.4,112.2z M691,117c-4.5-3.2-5.6-9.4-2.5-13.9s9.4-5.6,13.9-2.5
	s5.6,9.4,2.5,13.9S695.6,120.2,691,117z M703,135.7c-4.5-3.2-5.6-9.4-2.5-13.9s9.4-5.6,13.9-2.5s5.6,9.4,2.5,13.9
	S707.5,138.9,703,135.7z M698.2,157.4c-4.5-3.2-5.6-9.4-2.5-13.9s9.4-5.6,13.9-2.5s5.6,9.4,2.5,13.9S702.7,160.6,698.2,157.4z
	 M679.4,169.3c-4.5-3.2-5.6-9.4-2.5-13.9s9.4-5.6,13.9-2.5s5.6,9.4,2.5,13.9S684,172.5,679.4,169.3z"/>
<path class="st0" d="M659.1,154.7c-4.1-3.7-4.4-10-0.7-14.1c3.7-4.1,10-4.4,14.1-0.7c4.1,3.7,4.4,10,0.7,14.1
	C669.5,158.1,663.2,158.4,659.1,154.7z M649.6,134.7c-4.1-3.7-4.4-10-0.7-14.1c3.7-4.1,10-4.4,14.1-0.7c4.1,3.7,4.4,10,0.7,14.1
	C660,138,653.7,138.4,649.6,134.7z M657,113.8c-4.1-3.7-4.4-10-0.7-14.1c3.7-4.1,10-4.4,14.1-0.7c4.1,3.7,4.4,10,0.7,14.1
	C667.4,117.1,661.1,117.5,657,113.8z M677,104.2c-4.1-3.7-4.4-10-0.7-14.1c3.7-4.1,10-4.4,14.1-0.7c4.1,3.7,4.4,10,0.7,14.1
	C687.4,107.6,681.1,107.9,677,104.2z M697.9,111.6c-4.1-3.7-4.4-10-0.7-14.1c3.7-4.1,10-4.4,14.1-0.7c4.1,3.7,4.4,10,0.7,14.1
	C708.3,115,702,115.3,697.9,111.6z M707.5,131.6c-4.1-3.7-4.4-10-0.7-14.1c3.7-4.1,10-4.4,14.1-0.7c4.1,3.7,4.4,10,0.7,14.1
	C717.9,135,711.6,135.3,707.5,131.6z M700.1,152.6c-4.1-3.7-4.4-10-0.7-14.1c3.7-4.1,10-4.4,14.1-0.7c4.1,3.7,4.4,10,0.7,14.1
	C710.5,155.9,704.2,156.3,700.1,152.6z M680,162.1c-4.1-3.7-4.4-10-0.7-14.1c3.7-4.1,10-4.4,14.1-0.7c4.1,3.7,4.4,10,0.7,14.1
	C690.5,165.5,684.1,165.8,680,162.1z"/>
<path class="st0" d="M656.5,322.7l32.7,13.9l28.4-21.4l4.5,37l-32.7-13.9l-28.4,21.4L656.5,322.7z"/>
<path class="st0" d="M652.1,314.7l32.2,15l29.1-20.4l3.2,37.1l-32.2-15l-29.1,20.4L652.1,314.7z"/>
<path class="st0" d="M648,306.1l31.4,16.7l30.1-18.8l1.3,37.2l-31.4-16.7l-30.1,18.8L648,306.1z"/>
<path class="st0" d="M643.7,298.1l30.8,17.8l30.8-17.8v37.2l-30.8-17.8l-30.8,17.8V298.1z"/>
<path class="st0" d="M639.7,289.7l29.8,19.3l31.6-16.1l-1.9,37.2l-29.8-19.3l-31.6,16.1L639.7,289.7z"/>
<path class="st0" d="M635.8,281.2l28.7,20.9l32.4-14.4l-3.9,37l-28.7-20.9l-32.4,14.4L635.8,281.2z"/>
<path class="st0" d="M631.6,273.4l28,21.9l32.9-13.3l-5.2,36.9l-28-21.9l-32.9,13.3L631.6,273.4z"/>
<path class="st0" d="M627.9,265l26.8,23.3l33.6-11.6l-7.1,36.6L654.4,290l-33.6,11.6L627.9,265z"/>
<path class="st0" d="M624.2,256.8l25.5,24.7l34.1-9.8l-9,36.1l-25.5-24.7l-34.1,9.8L624.2,256.8z"/>
<path class="st0" d="M620.1,249l24.7,25.5l34.5-8.6L669,301.8l-24.7-25.5l-34.5,8.6L620.1,249z"/>
<path class="st0" d="M616.6,240.9l23.3,26.8l34.9-6.8l-12.1,35.2l-23.3-26.8l-34.9,6.8L616.6,240.9z"/>
<path class="st0" d="M613.1,232.8l21.9,28l35.2-4.9l-13.9,34.5l-21.9-28l-35.2,4.9L613.1,232.8z"/>
<path class="st0" d="M609.1,225.2l20.9,28.7l35.3-3.7l-15.1,34l-20.9-28.7l-35.3,3.7L609.1,225.2z"/>
<path class="st0" d="M605.7,217.3l19.3,29.8l35.5-1.9l-16.9,33.2l-19.3-29.8l-35.5,1.9L605.7,217.3z"/>
<path class="st0" d="M602.4,209.4l17.8,30.8h35.5L637,272.4l-17.8-30.8h-35.5L602.4,209.4z"/>
<path class="st0" d="M598.5,202l16.7,31.4l35.5,1.2L631,266.1l-16.7-31.4l-35.5-1.2L598.5,202z"/>
<path class="st0" d="M595.3,194.3l15,32.2l35.4,3.1L624.3,260l-15-32.2l-35.4-3.1L595.3,194.3z"/>
<path class="st0" d="M592,186.7l13.3,32.9l35.2,4.9l-22.9,29.3l-13.3-32.9l-35.2-4.9L592,186.7z"/>
<path class="st0" d="M588.2,179.3l12.1,33.4l35,6.2l-23.9,28.5L599.3,214l-35-6.2L588.2,179.3z"/>
<path class="st0" d="M585.1,171.9l10.4,34l34.6,8l-25.4,27.2l-10.4-34l-34.6-8L585.1,171.9z"/>
<path class="st0" d="M581.9,164.5l8.6,34.5l34.1,9.8l-26.8,25.9l-8.6-34.5l-34.1-9.8L581.9,164.5z"/>
<path class="st0" d="M578.2,157.4l7.4,34.7l33.8,11L591.6,228l-7.4-34.7l-33.8-11L578.2,157.4z"/>
<path class="st0" d="M575.1,150.2l5.6,35.1l33.1,12.7l-28.9,23.4l-5.6-35.1l-33.1-12.7L575.1,150.2z"/>
<path class="st0" d="M571.3,143.1l4.3,35.2l32.7,13.9l-29.7,22.4l-4.3-35.2l-32.7-13.9L571.3,143.1z"/>
<path class="st0" d="M568.2,136.1l2.5,35.4l31.9,15.6l-30.9,20.8l-2.5-35.4l-31.9-15.6L568.2,136.1z"/>
<path class="st0" d="M565.1,129.2l0.6,35.5l31.1,17.2l-31.9,19.2l-0.6-35.5l-31.1-17.2L565.1,129.2z"/>
<path class="st0" d="M561.4,122.3l-0.6,35.5l30.4,18.3l-32.6,18.1l0.6-35.5l-30.4-18.3L561.4,122.3z"/>
<path class="st0" d="M558.3,115.5l-2.5,35.4l29.4,19.9l-33.5,16.3l2.5-35.4l-29.4-19.9L558.3,115.5z"/>
<path class="st0" d="M555.2,108.8l-4.3,35.2l28.4,21.4L545,180l4.3-35.2l-28.4-21.4L555.2,108.8z"/>
<path class="st0" d="M551.5,102.1l-5.6,35.1l27.6,22.3l-34.8,13.3l5.6-35.1l-27.6-22.3L551.5,102.1z"/>
<path class="st0" d="M548.4,95.6l-7.4,34.7l26.4,23.8l-35.4,11.5l7.4-34.7l-26.4-23.8L548.4,95.6z"/>
</svg>
