<?xml version="1.0" encoding="utf-8"?>
<!-- Generator: Adobe Illustrator 25.4.8, SVG Export Plug-In . SVG Version: 6.00 Build 0)  -->
<svg version="1.1" id="Layer_1" xmlns="http://www.w3.org/2000/svg" xmlns:xlink="http://www.w3.org/1999/xlink" x="0px" y="0px"
	 viewBox="0 0 612 792" style="enable-background:new 0 0 612 792;" xml:space="preserve">
<style type="text/css">
	.st0{fill:none;stroke:#000000;stroke-width:60;stroke-linecap:round;stroke-linejoin:bevel;stroke-miterlimit:10;}
	.st1{fill:#00AEEF;}
	.st2{fill:none;stroke:#000000;stroke-miterlimit:10;}
	.st3{fill:none;stroke:#000000;stroke-width:20;stroke-miterlimit:10;}
	.st4{fill:#F15A29;}
	.st5{fill:none;stroke:#ED1C24;stroke-miterlimit:10;}
	.st6{fill:#2B3990;}
</style>
<g>
	<path class="st0" d="M94.2,637.1c3.2-26.3,12-63.4,40.2-80.5c81.1-49,297.7,96.6,297.7,96.6S509,496.8,419.3,62.6"/>
	<g>
		<rect x="186" y="167.4" class="st1" width="378.1" height="414.8"/>
		<line class="st2" x1="324.2" y1="57.4" x2="263.8" y2="705"/>
	</g>
</g>
<g>
	<g>
		<line class="st3" x1="86.2" y1="89.9" x2="575.4" y2="604.9"/>
		<ellipse class="st4" cx="245.5" cy="380.1" rx="119.9" ry="81.5"/>
	</g>
	<g>
		<path class="st5" d="M43,203.4c24.5,55.7,58.8,113.9,98.5,112.2c37.4-1.6,57.1-55.5,81-44.4c29.4,13.6,30,108.7,30.2,139.7
			c0.8,134-38.3,187.7-19.1,226.5c13.7,27.6,55.2,44,171.6,4.2"/>
		<rect x="20.7" y="393.9" class="st6" width="397.2" height="112.2"/>
	</g>
</g>
</svg>
